<?xml version="1.0" standalone="no"?>
<!DOCTYPE svg PUBLIC "-//W3C//DTD SVG 20010904//EN"
 "http://www.w3.org/TR/2001/REC-SVG-20010904/DTD/svg10.dtd">
<svg version="1.0" xmlns="http://www.w3.org/2000/svg"
 width="992.000000pt" height="992.000000pt" viewBox="0 0 992.000000 992.000000"
 preserveAspectRatio="xMidYMid meet">

<g transform="translate(0.000000,992.000000) scale(0.100000,-0.100000)"
fill="#000000" stroke="none">
<path d="M9120 9880 c0 -33 3 -40 20 -40 17 0 20 -7 20 -40 0 -33 3 -40 20
-40 17 0 20 -7 20 -40 l0 -40 40 0 40 0 0 -40 c0 -33 3 -40 20 -40 17 0 20 -7
20 -40 l0 -40 40 0 40 0 0 -40 c0 -22 5 -40 10 -40 6 0 10 -18 10 -40 0 -33 3
-40 20 -40 17 0 20 -7 20 -40 0 -38 2 -40 30 -40 23 0 30 -4 30 -20 0 -17 7
-20 40 -20 33 0 40 -3 40 -20 0 -13 7 -20 20 -20 17 0 20 -7 20 -40 0 -33 3
-40 20 -40 18 0 20 -7 20 -80 l0 -80 40 0 40 0 0 -40 0 -40 80 0 80 0 0 520 0
520 -400 0 -400 0 0 -40z"/>
<path d="M4978 8736 c-10 -7 -18 -18 -18 -25 0 -6 -12 -16 -26 -21 -21 -8 -24
-13 -14 -25 6 -8 9 -20 5 -27 -4 -7 1 -4 9 6 9 11 16 24 16 29 0 5 6 7 13 4 6
-2 17 9 24 25 8 18 20 28 33 28 11 0 20 5 20 10 0 14 -42 12 -62 -4z"/>
<path d="M5130 8703 c-8 -4 -27 -19 -42 -34 -16 -15 -38 -29 -51 -31 -14 -2
-23 -11 -25 -25 -2 -12 -10 -27 -18 -33 -20 -17 -17 -30 6 -30 12 0 29 15 45
40 28 44 36 48 56 24 12 -14 14 -14 21 5 13 35 50 26 70 -16 20 -42 11 -69
-25 -79 -19 -4 -23 -11 -19 -35 2 -16 10 -29 16 -29 18 0 36 22 36 42 0 22 35
95 57 120 21 24 9 66 -23 78 -27 11 -80 12 -104 3z m94 -19 c24 -9 21 -54 -3
-54 -25 0 -32 11 -24 38 6 25 5 24 27 16z"/>
<path d="M4456 8661 c-3 -5 1 -14 9 -21 13 -10 15 -9 15 9 0 21 -14 28 -24 12z"/>
<path d="M5615 8640 c-3 -5 1 -10 9 -10 9 0 16 5 16 10 0 6 -4 10 -9 10 -6 0
-13 -4 -16 -10z"/>
<path d="M4070 8618 c0 -19 2 -20 10 -8 13 19 13 30 0 30 -5 0 -10 -10 -10
-22z"/>
<path d="M5290 8629 c0 -5 5 -7 10 -4 6 3 10 8 10 11 0 2 -4 4 -10 4 -5 0 -10
-5 -10 -11z"/>
<path d="M4370 8610 c0 -6 -11 -20 -25 -32 -34 -29 -32 -35 15 -48 31 -8 41
-17 46 -38 4 -15 11 -32 16 -39 5 -6 8 -22 6 -35 -3 -20 1 -23 29 -23 31 0 31
1 18 22 -8 11 -16 33 -19 47 -2 14 -14 35 -25 48 -12 12 -21 25 -21 29 0 4 -9
9 -20 12 -23 6 -27 35 -5 43 8 4 12 10 9 15 -7 12 -24 11 -24 -1z"/>
<path d="M5706 8599 c-20 -29 -14 -34 19 -17 23 12 24 16 12 27 -12 10 -18 8
-31 -10z"/>
<path d="M5450 8588 c-13 -14 -19 -31 -16 -43 3 -11 -3 -28 -13 -40 -10 -11
-21 -37 -24 -58 l-6 -37 34 26 c34 25 55 72 55 121 0 24 22 43 28 25 5 -15 32
-16 32 -2 0 6 -5 10 -11 10 -5 0 -7 5 -4 10 13 21 -54 10 -75 -12z"/>
<path d="M5803 8556 c-30 -14 -29 -34 2 -42 16 -4 30 0 40 10 9 9 21 16 27 16
6 0 6 6 -2 15 -14 17 -35 18 -67 1z"/>
<path d="M4250 8550 c0 -5 5 -10 10 -10 6 0 10 5 10 10 0 6 -4 10 -10 10 -5 0
-10 -4 -10 -10z"/>
<path d="M4520 8530 c0 -5 7 -10 15 -10 8 0 15 5 15 10 0 6 -7 10 -15 10 -8 0
-15 -4 -15 -10z"/>
<path d="M5072 8527 c-7 -8 -7 -18 -1 -27 8 -13 10 -13 19 0 12 19 12 27 1 34
-5 3 -13 0 -19 -7z"/>
<path d="M5654 8516 c-3 -14 -3 -29 0 -34 10 -17 -22 -35 -50 -28 -21 6 -33 1
-55 -20 -16 -15 -29 -38 -29 -51 0 -18 -8 -27 -30 -34 -16 -6 -30 -15 -30 -19
0 -14 31 -20 50 -10 10 6 29 10 43 10 19 0 24 5 24 28 0 15 3 39 6 53 6 22 11
25 32 21 14 -2 28 -8 31 -13 3 -5 21 -9 41 -9 l36 0 -21 23 c-25 27 -28 47 -8
47 24 0 29 20 10 41 -23 26 -42 24 -50 -5z"/>
<path d="M4152 8518 c-19 -24 6 -46 43 -37 17 3 24 7 17 8 -8 0 -21 10 -31 22
-14 18 -19 19 -29 7z"/>
<path d="M3985 8509 c-3 -8 1 -31 9 -50 l15 -34 0 35 c1 42 -15 73 -24 49z"/>
<path d="M4290 8490 c0 -5 5 -10 11 -10 5 0 7 5 4 10 -3 6 -8 10 -11 10 -2 0
-4 -4 -4 -10z"/>
<path d="M5985 8490 c-3 -5 -1 -10 4 -10 6 0 11 5 11 10 0 6 -2 10 -4 10 -3 0
-8 -4 -11 -10z"/>
<path d="M4550 8470 c-9 -6 -10 -10 -3 -10 6 0 15 5 18 10 8 12 4 12 -15 0z"/>
<path d="M4760 8469 c0 -5 5 -7 10 -4 6 3 10 8 10 11 0 2 -4 4 -10 4 -5 0 -10
-5 -10 -11z"/>
<path d="M5863 8451 c-24 -32 -21 -41 14 -41 18 0 23 5 23 25 0 14 0 28 1 32
2 19 -19 10 -38 -16z"/>
<path d="M5470 8460 c0 -5 5 -10 11 -10 5 0 7 5 4 10 -3 6 -8 10 -11 10 -2 0
-4 -4 -4 -10z"/>
<path d="M5770 8435 c0 -19 -3 -35 -8 -35 -4 0 -13 -9 -20 -20 -18 -30 0 -24
41 13 35 31 36 34 21 55 -22 32 -34 27 -34 -13z"/>
<path d="M4857 8444 c-8 -8 1 -24 14 -24 5 0 9 7 9 15 0 15 -12 20 -23 9z"/>
<path d="M5957 8430 c-3 -11 -16 -24 -30 -29 -32 -12 -41 -38 -23 -66 13 -20
12 -26 -9 -63 -16 -29 -20 -43 -12 -51 23 -23 45 -11 70 42 24 49 24 53 8 65
-12 8 -17 21 -13 37 l4 25 29 -21 c23 -16 29 -17 29 -6 0 8 -7 17 -15 21 -22
8 -18 37 5 43 23 6 27 23 5 23 -8 0 -15 -5 -15 -11 0 -8 -4 -8 -14 0 -11 9
-15 7 -19 -9z"/>
<path d="M4300 8430 c-8 -5 -12 -11 -10 -12 24 -18 63 -39 66 -35 8 8 -19 57
-30 57 -6 0 -18 -4 -26 -10z"/>
<path d="M4930 8426 c0 -9 7 -16 16 -16 9 0 14 5 12 12 -6 18 -28 21 -28 4z"/>
<path d="M6115 8423 c-14 -8 -25 -21 -25 -29 0 -8 -4 -13 -9 -10 -14 9 -21
-22 -11 -50 13 -34 14 -32 -17 -36 -18 -2 -29 -10 -31 -21 -3 -16 0 -18 20
-12 12 4 32 18 44 32 29 34 75 63 100 63 16 0 23 8 27 27 3 15 3 32 0 39 -6
16 -65 14 -98 -3z"/>
<path d="M3802 8411 c4 -13 18 -16 19 -4 0 4 -5 9 -11 12 -7 2 -11 -2 -8 -8z"/>
<path d="M5060 8396 c16 -17 24 -37 22 -52 -3 -18 1 -24 17 -24 l20 0 -20 38
c-12 21 -30 44 -42 51 -20 12 -19 11 3 -13z"/>
<path d="M3645 8396 c-14 -16 -6 -56 11 -56 15 0 19 37 6 56 -5 9 -10 9 -17 0z"/>
<path d="M4110 8395 c0 -16 16 -20 24 -6 3 5 -1 11 -9 15 -9 3 -15 0 -15 -9z"/>
<path d="M4208 8403 c7 -3 16 -2 19 1 4 3 -2 6 -13 5 -11 0 -14 -3 -6 -6z"/>
<path d="M3029 8387 c-12 -9 -16 -27 -15 -65 1 -51 18 -68 24 -24 2 14 11 22
23 22 12 0 19 7 19 20 0 11 -4 20 -10 20 -5 0 -10 6 -10 14 0 21 -13 26 -31
13z"/>
<path d="M4593 8389 c-6 -6 -9 -17 -6 -25 7 -18 33 -5 33 17 0 21 -11 24 -27
8z"/>
<path d="M4861 8381 c-9 -16 -8 -18 9 -14 21 6 26 18 11 28 -6 3 -15 -3 -20
-14z"/>
<path d="M4023 8379 c-9 -9 -8 -17 4 -35 8 -13 12 -24 9 -24 -4 0 1 -13 11
-30 9 -16 23 -30 30 -30 18 0 5 61 -17 81 -10 8 -19 23 -21 33 -3 13 -7 14
-16 5z"/>
<path d="M3490 8365 c0 -8 5 -15 10 -15 6 0 10 7 10 15 0 8 -4 15 -10 15 -5 0
-10 -7 -10 -15z"/>
<path d="M4972 8340 c-2 -23 1 -28 13 -23 9 3 15 14 13 26 -5 32 -23 30 -26
-3z"/>
<path d="M5321 8316 c-23 -30 -49 -57 -56 -60 -12 -4 -13 -10 -3 -32 11 -23
10 -28 -7 -41 -11 -7 -28 -12 -38 -9 -19 5 -30 -13 -41 -66 -14 -63 -96 -12
-96 58 0 26 -4 34 -18 34 -9 0 -22 -10 -28 -22 -8 -19 -5 -32 15 -68 14 -25
31 -48 38 -53 6 -4 18 -13 25 -20 19 -19 62 -6 66 20 4 28 46 28 61 -1 11 -20
11 -19 8 6 -2 16 1 33 8 38 7 6 11 19 8 30 -4 13 4 23 26 35 28 14 31 19 26
49 -7 32 -6 33 27 28 30 -4 32 -3 19 11 -17 22 -8 55 24 90 l26 27 -24 0 c-18
0 -36 -15 -66 -54z"/>
<path d="M3228 8343 c-9 -10 -18 -35 -22 -55 -6 -31 -4 -38 10 -38 12 0 15 6
11 21 -11 43 11 62 40 34 16 -17 34 -16 35 0 0 6 -13 20 -30 33 -27 21 -30 21
-44 5z"/>
<path d="M3855 8329 c4 -19 7 -42 7 -51 0 -9 6 -22 14 -29 8 -6 14 -21 14 -33
0 -34 33 -120 52 -134 10 -7 18 -26 18 -41 0 -38 96 -143 106 -116 4 9 1 35
-6 58 -7 23 -14 47 -15 52 -2 6 -4 1 -4 -10 -1 -11 -10 -26 -20 -32 -16 -10
-19 -9 -19 10 -1 94 -28 157 -67 157 -13 0 -15 6 -10 29 7 33 -19 107 -41 115
-8 3 -14 14 -14 25 0 11 -5 23 -12 27 -8 5 -9 -2 -3 -27z"/>
<path d="M4128 8330 c-3 -16 -3 -30 -1 -30 11 0 33 30 33 44 0 29 -28 17 -32
-14z"/>
<path d="M4354 8328 c2 -21 3 -38 1 -38 -2 0 -19 14 -37 30 -43 39 -98 43 -98
6 0 -13 6 -26 14 -29 8 -3 16 -16 18 -29 2 -17 10 -23 30 -24 57 -2 73 -49 20
-56 l-27 -4 29 -12 c23 -10 32 -10 44 0 8 7 23 12 34 10 19 -3 25 12 9 23 -17
10 -23 63 -9 84 9 15 10 24 2 29 -6 4 -16 16 -23 27 -11 18 -12 15 -7 -17z"/>
<path d="M4464 8345 c-7 -18 4 -37 18 -29 6 4 8 2 4 -4 -3 -6 -1 -23 6 -39 8
-21 12 -24 15 -11 4 14 8 15 28 6 20 -9 23 -16 18 -37 -3 -14 -10 -31 -15 -38
-13 -17 -1 -33 24 -33 11 0 27 -8 34 -17 11 -16 13 -13 10 19 -4 51 -47 147
-68 154 -10 3 -18 14 -18 25 0 23 -47 27 -56 4z"/>
<path d="M3392 8341 c-8 -5 -12 -22 -10 -42 3 -33 3 -34 16 -11 17 29 12 65
-6 53z"/>
<path d="M5620 8340 c0 -5 5 -10 10 -10 6 0 10 5 10 10 0 6 -4 10 -10 10 -5 0
-10 -4 -10 -10z"/>
<path d="M2861 8327 c-16 -20 -38 -22 -44 -4 -2 6 -8 8 -13 4 -4 -4 -3 -17 4
-27 7 -11 8 -20 3 -20 -5 0 -11 -9 -14 -19 -4 -17 -2 -19 22 -10 14 5 32 18
39 27 11 15 13 11 11 -25 -2 -30 3 -48 17 -64 10 -11 18 -30 16 -40 -4 -21 23
-100 46 -136 8 -13 12 -29 9 -37 -3 -8 5 -24 17 -35 22 -21 24 -21 28 -4 3 10
-1 24 -9 31 -7 7 -13 27 -13 45 0 18 -5 38 -11 44 -7 7 -12 34 -13 61 -1 28
-3 48 -6 47 -3 -2 -12 0 -20 5 -12 7 -13 15 -4 38 10 27 9 30 -17 39 -24 9
-28 17 -31 54 -3 37 -5 40 -17 26z"/>
<path d="M3684 8327 c-3 -9 11 -51 32 -95 35 -73 39 -78 65 -74 27 4 27 5 13
37 -7 18 -11 35 -8 38 3 3 -3 3 -14 0 -15 -3 -24 3 -36 28 -9 17 -16 38 -16
44 0 7 -7 18 -15 25 -12 10 -16 9 -21 -3z"/>
<path d="M3945 8330 c3 -5 8 -10 11 -10 2 0 4 5 4 10 0 6 -5 10 -11 10 -5 0
-7 -4 -4 -10z"/>
<path d="M6210 8330 c0 -5 5 -10 10 -10 6 0 10 5 10 10 0 6 -4 10 -10 10 -5 0
-10 -4 -10 -10z"/>
<path d="M4630 8289 c0 -19 10 -43 25 -61 17 -19 23 -37 20 -49 -4 -12 -2 -19
8 -19 7 0 24 -12 36 -26 33 -38 37 -21 7 30 -14 24 -26 51 -26 59 0 7 -11 24
-25 37 -14 13 -25 32 -25 42 0 10 -4 18 -10 18 -5 0 -10 -14 -10 -31z"/>
<path d="M3520 8295 c0 -8 9 -15 20 -15 24 0 27 15 4 24 -22 9 -24 8 -24 -9z"/>
<path d="M5153 8303 c-29 -11 -10 -18 42 -15 30 2 55 8 55 13 0 9 -76 11 -97
2z"/>
<path d="M5391 8274 c0 -11 3 -14 6 -6 3 7 2 16 -1 19 -3 4 -6 -2 -5 -13z"/>
<path d="M5512 8265 c-11 -23 -9 -27 14 -35 35 -14 34 -14 34 25 0 27 -4 35
-18 35 -11 0 -24 -11 -30 -25z"/>
<path d="M6590 8274 c0 -8 5 -12 10 -9 6 3 10 10 10 16 0 5 -4 9 -10 9 -5 0
-10 -7 -10 -16z"/>
<path d="M3410 8260 c-27 -27 -26 -43 3 -35 38 12 40 11 50 -22 15 -51 39 -43
31 10 -10 64 -46 85 -84 47z"/>
<path d="M3303 8263 c-17 -6 -16 -33 1 -33 17 0 38 24 29 33 -7 8 -12 8 -30 0z"/>
<path d="M3640 8245 c0 -9 9 -15 21 -15 18 0 19 2 5 15 -8 8 -17 15 -20 15 -3
0 -6 -7 -6 -15z"/>
<path d="M5000 8225 c0 -14 5 -25 10 -25 6 0 10 2 10 4 0 2 3 11 6 19 3 8 -2
17 -10 20 -12 5 -16 0 -16 -18z"/>
<path d="M6520 8215 c0 -35 5 -40 34 -29 22 8 20 23 -6 45 -28 25 -28 25 -28
-16z"/>
<path d="M6613 8240 c-13 -5 -23 -16 -23 -25 0 -17 11 -20 26 -6 5 5 20 11 33
13 32 4 40 28 9 27 -12 0 -33 -4 -45 -9z"/>
<path d="M5166 8233 c-14 -14 -5 -43 13 -43 14 0 18 5 14 20 -6 23 -17 33 -27
23z"/>
<path d="M6340 8230 c0 -5 5 -10 10 -10 6 0 10 5 10 10 0 6 -4 10 -10 10 -5 0
-10 -4 -10 -10z"/>
<path d="M4010 8216 c0 -9 5 -16 10 -16 6 0 10 4 10 9 0 6 -4 13 -10 16 -5 3
-10 -1 -10 -9z"/>
<path d="M6840 8202 c0 -9 9 -23 21 -30 l20 -13 -20 -35 c-12 -19 -20 -47 -20
-62 2 -27 2 -27 6 -2 3 14 10 32 17 40 6 8 18 32 25 53 10 30 10 41 1 52 -17
21 -50 19 -50 -3z"/>
<path d="M3320 8200 c0 -5 5 -10 11 -10 5 0 7 5 4 10 -3 6 -8 10 -11 10 -2 0
-4 -4 -4 -10z"/>
<path d="M5716 8192 c-9 -14 12 -35 28 -29 23 9 20 37 -3 37 -11 0 -22 -4 -25
-8z"/>
<path d="M5862 8178 c-7 -7 -12 -18 -12 -25 0 -7 -9 -13 -20 -13 -17 0 -19 -5
-14 -32 11 -62 14 -65 35 -39 10 13 19 30 19 37 0 10 7 13 24 8 39 -9 50 5 21
28 -14 10 -25 26 -25 34 0 17 -12 18 -28 2z"/>
<path d="M4846 8171 c-4 -7 -5 -15 -2 -18 9 -9 19 4 14 18 -4 11 -6 11 -12 0z"/>
<path d="M7000 8121 c0 -43 3 -51 19 -51 27 0 43 24 39 62 -2 28 -7 34 -30 36
-27 3 -28 2 -28 -47z"/>
<path d="M3362 8129 c6 -19 12 -40 14 -46 2 -7 7 -13 12 -13 15 0 1 58 -19 76
-17 16 -18 15 -7 -17z"/>
<path d="M3645 8139 c-4 -6 -5 -13 -2 -16 7 -7 27 6 27 18 0 12 -17 12 -25 -2z"/>
<path d="M5477 8130 c3 -11 7 -20 9 -20 2 0 4 9 4 20 0 11 -4 20 -9 20 -5 0
-7 -9 -4 -20z"/>
<path d="M6937 8144 c-8 -8 1 -24 14 -24 5 0 9 7 9 15 0 15 -12 20 -23 9z"/>
<path d="M3185 8130 c-4 -6 6 -10 22 -10 22 0 25 2 13 10 -19 12 -27 12 -35 0z"/>
<path d="M4076 8115 c4 -16 13 -42 20 -57 8 -15 14 -34 14 -43 0 -9 9 -34 21
-57 11 -22 22 -52 23 -67 4 -30 36 -43 36 -14 0 10 -11 41 -25 68 -13 28 -25
60 -25 73 0 12 -4 22 -10 22 -5 0 -10 10 -10 23 0 12 -11 36 -25 52 l-25 30 6
-30z"/>
<path d="M6007 8114 c-18 -18 -32 -24 -46 -19 -17 5 -21 2 -21 -15 0 -20 3
-21 43 -15 23 4 45 9 49 11 6 4 9 64 3 64 -1 0 -14 -12 -28 -26z"/>
<path d="M3078 8105 c-10 -22 -9 -29 10 -47 26 -26 39 -19 20 11 -10 17 -10
25 0 41 10 17 10 20 -3 20 -9 0 -21 -11 -27 -25z"/>
<path d="M5457 8123 c-11 -10 -8 -43 3 -43 6 0 10 11 10 25 0 26 -2 29 -13 18z"/>
<path d="M6320 8109 c0 -11 11 -32 25 -47 24 -25 27 -26 39 -9 7 9 21 17 30
17 9 0 16 4 16 9 0 17 -21 23 -36 10 -13 -10 -17 -10 -25 2 -5 8 -9 17 -9 20
0 4 -9 9 -20 12 -15 4 -20 0 -20 -14z"/>
<path d="M3300 8110 c0 -5 5 -10 11 -10 5 0 7 5 4 10 -3 6 -8 10 -11 10 -2 0
-4 -4 -4 -10z"/>
<path d="M4421 8104 c0 -11 3 -14 6 -6 3 7 2 16 -1 19 -3 4 -6 -2 -5 -13z"/>
<path d="M3550 8095 c0 -9 5 -15 11 -13 6 2 11 8 11 13 0 5 -5 11 -11 13 -6 2
-11 -4 -11 -13z"/>
<path d="M4638 8096 c-23 -17 -17 -66 11 -84 27 -18 36 -10 21 18 -6 12 -9 32
-6 45 7 29 -3 37 -26 21z"/>
<path d="M4206 8092 c-3 -6 -1 -23 6 -39 11 -26 12 -27 15 -6 5 26 -11 61 -21
45z"/>
<path d="M4310 8090 c0 -8 11 -37 25 -65 13 -27 25 -62 25 -77 0 -15 5 -30 10
-33 6 -4 8 -21 5 -38 -4 -26 0 -38 25 -66 18 -21 30 -45 30 -62 0 -16 5 -29
12 -29 6 0 8 -3 5 -7 -4 -3 3 -17 15 -30 26 -28 21 -34 -36 -40 -37 -5 -46 -2
-58 16 -7 11 -18 21 -24 21 -7 0 -17 13 -22 29 -7 19 -19 31 -33 33 -23 3 -29
12 -49 66 -7 17 -17 32 -22 32 -5 0 -6 -5 -3 -10 4 -6 1 -18 -6 -26 -10 -12
-8 -19 10 -37 11 -13 21 -27 21 -33 0 -5 27 -37 60 -72 33 -34 67 -79 76 -100
12 -26 18 -32 21 -20 2 9 -1 26 -7 38 -17 32 -3 43 47 35 63 -9 73 -14 73 -36
0 -10 5 -19 10 -19 6 0 10 -8 10 -19 0 -10 7 -24 15 -31 8 -7 15 -25 15 -41 0
-16 4 -29 8 -29 5 0 14 -11 21 -24 10 -18 10 -28 1 -46 -11 -20 -10 -21 9 -10
28 15 26 36 -10 109 -19 38 -29 72 -27 86 3 14 2 22 -2 20 -4 -2 -14 12 -23
31 -9 19 -24 37 -32 40 -10 4 -13 13 -10 24 3 10 -1 25 -10 33 -8 9 -15 33
-15 55 0 24 -6 45 -16 53 -8 7 -22 26 -30 42 -14 25 -14 31 0 52 14 21 14 23
-4 18 -14 -4 -21 2 -26 21 -3 14 -4 33 0 41 4 11 -3 19 -19 25 -15 6 -25 17
-25 29 0 10 -9 29 -20 42 -13 17 -19 20 -20 9z"/>
<path d="M3770 8079 c0 -5 5 -7 10 -4 6 3 10 8 10 11 0 2 -4 4 -10 4 -5 0 -10
-5 -10 -11z"/>
<path d="M4685 8080 c-4 -7 -3 -16 3 -22 14 -14 45 -2 40 15 -6 16 -34 21 -43
7z"/>
<path d="M4864 8079 c-10 -17 13 -36 27 -22 12 12 4 33 -11 33 -5 0 -12 -5
-16 -11z"/>
<path d="M5390 8073 c0 -20 29 -102 43 -120 5 -7 14 -13 19 -13 14 0 1 48 -23
81 -10 15 -19 34 -19 42 0 9 -4 19 -10 22 -5 3 -10 -2 -10 -12z"/>
<path d="M3237 8073 c-4 -3 0 -18 8 -34 8 -15 15 -34 15 -41 0 -8 14 -22 30
-31 17 -10 30 -13 30 -8 0 14 47 14 55 1 3 -5 15 -10 26 -10 11 0 17 5 14 10
-3 6 -14 10 -23 10 -10 0 -26 14 -35 30 -10 17 -27 30 -37 30 -10 0 -32 11
-48 25 -16 13 -32 22 -35 18z"/>
<path d="M5690 8065 c0 -13 8 -16 38 -13 20 2 37 8 37 13 0 6 -17 11 -37 13
-30 3 -38 0 -38 -13z"/>
<path d="M6700 8065 c-18 -10 -20 -14 -8 -15 10 0 19 -12 23 -30 4 -16 10 -30
15 -30 13 0 40 48 40 72 0 17 -3 19 -9 9 -6 -9 -11 -10 -15 -2 -9 14 -15 14
-46 -4z"/>
<path d="M7194 8055 c-3 -8 -4 -22 -1 -29 4 -9 -2 -17 -13 -21 -22 -7 -45 -74
-31 -88 10 -10 41 41 41 67 0 9 14 22 30 31 17 9 30 17 30 19 0 2 -11 11 -25
20 -23 15 -26 15 -31 1z"/>
<path d="M3790 8050 c0 -5 7 -10 16 -10 8 0 12 5 9 10 -3 6 -10 10 -16 10 -5
0 -9 -4 -9 -10z"/>
<path d="M6507 8053 c-4 -3 -7 -15 -7 -26 0 -19 1 -20 20 -2 11 10 20 22 20
27 0 10 -24 11 -33 1z"/>
<path d="M5520 8030 c0 -11 7 -20 15 -20 8 0 15 9 15 20 0 11 -7 20 -15 20 -8
0 -15 -9 -15 -20z"/>
<path d="M4895 8020 c-18 -19 -17 -20 3 -20 15 0 22 6 22 20 0 11 -2 20 -3 20
-2 0 -12 -9 -22 -20z"/>
<path d="M5915 8030 c3 -5 10 -10 16 -10 5 0 9 5 9 10 0 6 -7 10 -16 10 -8 0
-12 -4 -9 -10z"/>
<path d="M6930 8021 c0 -16 -8 -20 -37 -23 -27 -2 -39 -8 -41 -20 -2 -13 1
-16 12 -12 9 3 16 2 16 -3 0 -15 -37 -51 -60 -58 -11 -3 -20 -11 -20 -16 0 -5
-7 -9 -16 -9 -14 0 -14 1 0 16 9 8 16 19 16 24 0 5 3 15 6 24 3 9 1 16 -5 16
-7 0 -14 -8 -18 -17 -3 -10 -15 -26 -25 -36 -18 -18 -18 -20 -2 -31 12 -10 14
-15 5 -20 -6 -4 -18 -3 -25 3 -9 8 -19 5 -35 -13 -25 -27 -21 -46 10 -46 14 0
19 -7 19 -30 0 -30 11 -36 43 -24 9 3 12 14 9 30 -4 21 -1 24 27 24 24 0 31 4
31 20 0 15 7 20 25 20 22 0 25 4 25 35 0 24 5 35 15 35 8 0 15 -6 15 -14 0
-14 36 -26 58 -18 7 2 12 14 12 28 0 17 4 22 15 18 10 -4 15 0 15 15 0 12 -6
21 -15 21 -8 0 -15 5 -15 10 0 6 7 10 15 10 8 0 15 9 15 20 0 22 -19 27 -37 9
-8 -8 -13 -5 -18 10 -8 26 -35 28 -35 2z"/>
<path d="M3843 8018 c-30 -15 -38 -43 -19 -70 9 -12 16 -35 16 -50 0 -21 5
-28 20 -28 23 0 27 15 6 27 -7 4 -16 29 -20 54 -6 41 -5 47 11 45 9 0 19 7 21
17 4 19 -3 20 -35 5z"/>
<path d="M4756 8015 c-4 -10 1 -15 16 -15 17 0 18 2 8 15 -7 8 -14 15 -15 15
-2 0 -5 -7 -9 -15z"/>
<path d="M3205 8010 c-3 -5 3 -10 15 -10 12 0 18 5 15 10 -3 6 -10 10 -15 10
-5 0 -12 -4 -15 -10z"/>
<path d="M4230 8008 c0 -11 -6 -15 -19 -11 -15 4 -18 0 -14 -21 3 -14 10 -26
17 -26 17 0 38 52 26 64 -7 7 -10 5 -10 -6z"/>
<path d="M5840 8010 c-12 -7 -12 -12 -3 -21 10 -10 14 -9 19 5 8 22 2 27 -16
16z"/>
<path d="M5946 8011 c-3 -5 0 -11 8 -14 15 -6 26 1 26 15 0 11 -27 10 -34 -1z"/>
<path d="M6320 8010 c0 -5 5 -10 10 -10 6 0 10 5 10 10 0 6 -4 10 -10 10 -5 0
-10 -4 -10 -10z"/>
<path d="M5020 7998 c-11 -4 -20 -12 -20 -17 0 -19 -40 -34 -55 -21 -20 17
-35 3 -35 -32 0 -26 -2 -29 -15 -18 -8 7 -15 19 -15 26 0 8 -8 14 -18 14 -10
0 -23 5 -29 11 -13 13 -43 5 -43 -10 0 -5 9 -11 20 -14 26 -7 25 -31 -2 -57
-32 -30 -55 -25 -82 18 -21 33 -28 38 -54 34 l-29 -4 18 -38 c19 -39 27 -78
11 -53 -6 9 -27 11 -71 8 l-62 -5 3 28 c3 25 0 27 -31 27 -39 0 -55 -23 -22
-32 24 -6 25 -11 12 -46 -9 -23 -7 -26 25 -31 19 -4 34 -11 34 -16 0 -6 6 -10
14 -10 8 0 17 -13 21 -30 4 -16 11 -33 17 -36 8 -5 9 1 4 17 -20 64 -19 68 10
79 16 6 38 14 49 19 11 5 35 9 54 10 18 1 41 6 51 11 10 6 37 10 59 10 29 0
46 6 58 20 10 11 30 20 46 20 18 0 39 11 59 30 16 17 34 30 39 30 5 0 9 6 9
14 0 8 10 16 23 19 12 4 31 13 42 21 19 15 17 16 -28 13 -26 -1 -56 -5 -67 -9z"/>
<path d="M6827 8003 c-4 -3 -7 -11 -7 -17 0 -6 5 -5 12 2 6 6 9 14 7 17 -3 3
-9 2 -12 -2z"/>
<path d="M2680 7990 c0 -5 10 -10 23 -10 18 0 19 2 7 10 -19 13 -30 13 -30 0z"/>
<path d="M3425 7980 c-3 -5 1 -10 10 -10 9 0 13 5 10 10 -3 6 -8 10 -10 10 -2
0 -7 -4 -10 -10z"/>
<path d="M6421 7974 c0 -11 3 -14 6 -6 3 7 2 16 -1 19 -3 4 -6 -2 -5 -13z"/>
<path d="M7400 7974 c0 -10 -5 -32 -12 -51 -6 -18 -9 -35 -6 -39 8 -8 50 15
44 24 -9 16 10 31 32 25 20 -5 21 -7 6 -17 -9 -7 -17 -28 -18 -50 -3 -78 25
-63 38 21 6 41 5 43 -39 73 -37 26 -45 28 -45 14z"/>
<path d="M6280 7964 c0 -8 5 -12 10 -9 6 3 10 10 10 16 0 5 -4 9 -10 9 -5 0
-10 -7 -10 -16z"/>
<path d="M6467 7973 c-12 -11 -8 -60 8 -89 20 -40 19 -54 -10 -96 -19 -27 -21
-38 -12 -46 8 -7 21 0 43 24 17 19 29 36 26 39 -9 9 87 8 119 -1 11 -3 18 3
22 16 3 13 0 20 -9 20 -12 0 -19 19 -15 43 2 12 -44 8 -57 -5 -7 -7 -13 -21
-13 -32 -1 -18 -2 -18 -6 -3 -2 9 -8 15 -13 12 -5 -3 -20 5 -33 17 -30 29 -44
68 -27 78 7 4 9 13 6 19 -8 12 -19 14 -29 4z"/>
<path d="M3100 7956 c0 -7 7 -19 15 -26 13 -11 20 -11 40 0 31 17 32 26 3 34
-37 10 -58 7 -58 -8z"/>
<path d="M5282 7944 c-1 -13 3 -24 8 -24 12 0 14 37 2 44 -4 2 -9 -6 -10 -20z"/>
<path d="M6521 7961 c-8 -5 -9 -11 -3 -15 5 -3 15 1 22 9 14 16 3 20 -19 6z"/>
<path d="M6607 7950 c7 -28 22 -35 30 -15 3 10 0 21 -8 26 -22 14 -28 11 -22
-11z"/>
<path d="M6700 7949 c-7 -11 -10 -23 -7 -25 2 -2 9 7 15 21 14 30 7 33 -8 4z"/>
<path d="M2748 7944 c-14 -14 -13 -20 8 -65 25 -51 30 -55 53 -40 18 12 6 81
-14 81 -8 0 -15 9 -15 20 0 24 -10 25 -32 4z"/>
<path d="M3685 7950 c-9 -15 3 -60 15 -60 13 0 13 57 1 65 -5 3 -13 0 -16 -5z"/>
<path d="M5620 7946 c0 -8 5 -18 10 -21 6 -3 10 3 10 14 0 12 -4 21 -10 21 -5
0 -10 -6 -10 -14z"/>
<path d="M5800 7940 c0 -5 9 -10 20 -10 11 0 20 5 20 10 0 6 -9 10 -20 10 -11
0 -20 -4 -20 -10z"/>
<path d="M6110 7940 c0 -5 5 -10 10 -10 6 0 10 5 10 10 0 6 -4 10 -10 10 -5 0
-10 -4 -10 -10z"/>
<path d="M3320 7933 c0 -4 5 -15 10 -23 8 -13 10 -13 10 2 0 9 -4 20 -10 23
-5 3 -10 3 -10 -2z"/>
<path d="M5056 7922 c-3 -6 -1 -14 5 -17 15 -10 25 3 12 16 -7 7 -13 7 -17 1z"/>
<path d="M5535 7921 c-3 -6 4 -15 15 -21 22 -12 23 -10 14 14 -7 18 -20 21
-29 7z"/>
<path d="M5698 7895 c-13 -30 -9 -36 18 -29 12 3 21 15 22 30 2 32 -25 32 -40
-1z"/>
<path d="M2620 7895 c0 -8 -4 -15 -10 -15 -5 0 -10 -5 -10 -11 0 -6 8 -9 18
-7 9 2 16 10 14 17 -1 7 2 10 7 7 5 -4 12 -2 15 3 3 5 -1 12 -10 15 -22 9 -24
8 -24 -9z"/>
<path d="M3180 7885 c0 -8 -5 -15 -10 -15 -6 0 -14 -10 -19 -22 -7 -19 -2 -28
23 -50 38 -33 61 -20 28 15 -23 24 -30 57 -12 57 6 0 10 7 10 15 0 8 -4 15
-10 15 -5 0 -10 -7 -10 -15z"/>
<path d="M3580 7884 c0 -9 5 -14 12 -12 18 6 21 28 4 28 -9 0 -16 -7 -16 -16z"/>
<path d="M5387 7893 c-10 -16 11 -39 23 -27 8 8 7 14 -4 23 -8 7 -17 8 -19 4z"/>
<path d="M5880 7885 c0 -9 9 -15 21 -15 18 0 19 2 9 15 -7 8 -16 15 -21 15 -5
0 -9 -7 -9 -15z"/>
<path d="M6665 7890 c-3 -5 -1 -10 4 -10 6 0 11 5 11 10 0 6 -2 10 -4 10 -3 0
-8 -4 -11 -10z"/>
<path d="M4585 7880 c3 -5 8 -10 11 -10 2 0 4 5 4 10 0 6 -5 10 -11 10 -5 0
-7 -4 -4 -10z"/>
<path d="M5801 7874 c0 -11 3 -14 6 -6 3 7 2 16 -1 19 -3 4 -6 -2 -5 -13z"/>
<path d="M7086 7868 c-9 -13 -12 -26 -7 -32 12 -14 2 -66 -13 -72 -6 -2 -31
-5 -55 -6 -24 -2 -46 -8 -48 -15 -2 -6 2 -11 9 -10 59 2 70 -3 66 -28 -6 -29
10 -45 23 -24 5 8 9 29 9 47 0 17 4 32 8 32 5 0 18 9 30 20 16 15 22 32 22 65
0 51 -18 60 -44 23z"/>
<path d="M2987 7873 c-4 -3 -7 -17 -7 -30 0 -28 23 -27 28 1 4 20 -11 40 -21
29z"/>
<path d="M4082 7849 c18 -24 24 -27 26 -14 6 26 -6 45 -28 45 -20 0 -20 0 2
-31z"/>
<path d="M7007 7860 c-9 -11 -24 -20 -32 -20 -28 0 -15 -26 23 -45 20 -11 40
-21 43 -23 4 -1 9 7 12 19 4 16 0 23 -14 26 -16 5 -19 11 -14 34 8 34 5 36
-18 9z"/>
<path d="M3270 7850 c0 -5 5 -10 10 -10 6 0 10 5 10 10 0 6 -4 10 -10 10 -5 0
-10 -4 -10 -10z"/>
<path d="M5169 7858 c-9 -30 -7 -48 5 -48 19 0 28 14 20 34 -5 13 -22 22 -25
14z"/>
<path d="M5586 7844 c-13 -35 -6 -90 15 -107 19 -17 19 -20 6 -41 -9 -13 -19
-39 -22 -60 -6 -29 -12 -36 -31 -36 -35 0 -39 3 -36 27 3 18 0 21 -13 17 -11
-5 -15 -14 -11 -29 3 -13 0 -38 -8 -56 -8 -19 -12 -46 -9 -62 4 -20 1 -27 -11
-27 -9 0 -16 8 -16 18 0 9 -5 34 -11 55 -16 60 -69 103 -69 57 0 -15 -7 -20
-25 -20 -14 0 -25 4 -25 8 0 8 -66 32 -88 32 -14 0 -2 -41 14 -47 8 -3 14 -11
14 -18 0 -7 16 -15 38 -18 97 -13 122 -25 122 -64 0 -14 13 -38 31 -55 21 -22
27 -34 20 -41 -19 -19 -12 -27 19 -20 30 6 30 6 33 -39 1 -7 -5 -30 -12 -51
-7 -21 -10 -41 -7 -44 8 -8 36 17 36 32 0 7 9 19 20 26 10 8 22 26 26 42 5 24
3 27 -19 27 -28 0 -48 19 -49 47 -1 38 12 79 32 95 11 9 20 20 19 25 -3 13 14
47 28 56 7 4 13 21 13 38 0 17 6 32 15 35 8 4 15 15 15 25 0 10 4 19 9 19 4 0
8 17 7 38 -1 25 3 36 12 35 21 -5 15 48 -7 54 -11 3 -21 13 -24 24 -6 23 -42
25 -51 3z"/>
<path d="M6156 7844 c-14 -10 -17 -17 -10 -24 8 -8 15 -6 23 4 19 23 9 37 -13
20z"/>
<path d="M6907 7846 c-3 -8 -2 -18 4 -22 16 -9 22 2 11 21 -8 15 -10 16 -15 1z"/>
<path d="M7377 7853 c-4 -3 -7 -15 -7 -25 0 -12 -4 -16 -12 -12 -7 4 -8 3 -4
-4 10 -17 19 -15 33 6 11 19 3 48 -10 35z"/>
<path d="M3360 7840 c0 -5 9 -10 20 -10 11 0 20 5 20 10 0 6 -9 10 -20 10 -11
0 -20 -4 -20 -10z"/>
<path d="M3582 7830 c9 -13 14 -16 20 -7 4 6 2 15 -5 19 -21 14 -28 9 -15 -12z"/>
<path d="M3990 7842 c0 -12 19 -26 26 -19 2 2 -2 10 -11 17 -9 8 -15 8 -15 2z"/>
<path d="M4970 7821 c0 -25 19 -38 31 -20 12 19 6 33 -14 37 -11 2 -17 -3 -17
-17z"/>
<path d="M5330 7835 c0 -15 18 -40 24 -34 3 3 -1 14 -9 25 -8 10 -14 15 -15 9z"/>
<path d="M7284 7825 c-3 -8 -1 -27 4 -42 6 -15 11 -21 11 -12 1 9 8 22 16 29
12 10 13 16 4 26 -15 18 -28 18 -35 -1z"/>
<path d="M7527 7834 c-13 -13 -7 -24 12 -24 27 0 46 -56 26 -77 -8 -8 -24 -15
-34 -16 -24 -2 -35 -36 -21 -72 8 -20 14 -24 33 -19 25 6 46 -19 27 -31 -6 -4
-10 -30 -10 -60 0 -33 -5 -55 -12 -58 -10 -4 -10 -6 0 -6 7 -1 20 9 30 21 9
12 28 34 42 48 22 23 24 29 13 51 -15 29 -16 49 -3 49 6 0 10 9 10 20 0 13 7
20 20 20 23 0 23 0 10 -34 -8 -22 -7 -26 10 -26 23 0 50 -36 50 -67 0 -33 23
-113 32 -113 4 0 8 -5 8 -11 0 -6 9 -22 19 -36 17 -20 18 -29 8 -50 -10 -22
-8 -27 13 -43 32 -25 37 -8 15 51 -9 24 -20 60 -24 79 -4 19 -13 51 -19 70 -6
19 -16 68 -23 108 -9 62 -17 80 -48 114 -65 73 -99 105 -112 106 -8 1 -25 4
-39 7 -14 4 -29 3 -33 -1z m113 -129 c0 -8 -4 -15 -10 -15 -5 0 -10 7 -10 15
0 8 5 15 10 15 6 0 10 -7 10 -15z m-34 -22 c-10 -10 -19 5 -10 18 6 11 8 11
12 0 2 -7 1 -15 -2 -18z"/>
<path d="M4903 7803 c-16 -6 -17 -36 -1 -31 6 2 12 12 14 21 1 9 2 17 1 16 -1
0 -8 -3 -14 -6z"/>
<path d="M2831 7784 c-1 -24 24 -62 35 -52 4 5 0 16 -8 25 -9 10 -18 25 -21
33 -4 11 -6 9 -6 -6z"/>
<path d="M3316 7776 c4 -12 13 -25 20 -29 8 -4 14 -14 14 -21 0 -8 7 -19 15
-26 8 -7 15 -25 15 -40 0 -15 7 -33 15 -40 8 -7 15 -18 15 -25 0 -7 7 -16 16
-19 14 -6 16 -1 10 36 -4 24 -13 48 -20 53 -17 13 -30 52 -31 90 0 26 -4 30
-38 36 -35 5 -37 4 -31 -15z"/>
<path d="M3475 7790 c4 -6 11 -8 16 -5 14 9 11 15 -7 15 -8 0 -12 -5 -9 -10z"/>
<path d="M7433 7775 c-6 -14 -9 -34 -6 -44 3 -10 0 -22 -6 -25 -13 -8 -15 -62
-3 -70 19 -12 27 14 27 87 0 42 0 77 0 77 0 0 -5 -11 -12 -25z"/>
<path d="M5290 7775 c0 -11 -7 -14 -25 -9 -14 3 -25 2 -25 -2 1 -17 29 -46 38
-40 5 3 17 -3 27 -14 10 -11 21 -20 25 -20 8 0 -3 71 -14 88 -10 17 -26 15
-26 -3z"/>
<path d="M6228 7785 c-9 -9 40 -136 61 -160 26 -29 43 -64 36 -75 -10 -16 -33
-12 -44 8 -6 11 -13 14 -20 7 -6 -7 -1 -21 17 -43 25 -31 30 -32 54 -22 17 8
24 18 21 29 -2 10 3 23 11 30 9 8 16 24 16 37 0 21 -5 24 -39 24 -35 0 -38 2
-34 25 3 15 -3 34 -16 51 -12 15 -21 32 -21 38 -1 16 -35 58 -42 51z"/>
<path d="M2985 7770 c-8 -12 35 -70 51 -70 23 0 26 21 8 42 -26 28 -51 40 -59
28z"/>
<path d="M3920 7761 c0 -10 7 -24 16 -32 9 -7 14 -22 11 -36 -6 -33 16 -48 37
-24 15 16 15 19 1 31 -9 7 -22 28 -30 47 -15 36 -35 44 -35 14z"/>
<path d="M4116 7773 c-15 -15 -4 -48 29 -84 33 -37 35 -38 35 -14 0 14 -8 29
-20 35 -11 6 -20 21 -20 35 0 25 -12 39 -24 28z"/>
<path d="M2550 7759 c0 -5 5 -7 10 -4 6 3 10 8 10 11 0 2 -4 4 -10 4 -5 0 -10
-5 -10 -11z"/>
<path d="M7360 7761 c0 -6 5 -13 10 -16 6 -3 10 1 10 9 0 9 -4 16 -10 16 -5 0
-10 -4 -10 -9z"/>
<path d="M2895 7750 c-19 -8 -19 -9 3 -9 12 -1 22 4 22 9 0 6 -1 10 -2 9 -2 0
-12 -4 -23 -9z"/>
<path d="M3200 7750 c0 -5 5 -10 10 -10 6 0 10 5 10 10 0 6 -4 10 -10 10 -5 0
-10 -4 -10 -10z"/>
<path d="M3720 7750 c0 -5 7 -10 16 -10 8 0 12 5 9 10 -3 6 -10 10 -16 10 -5
0 -9 -4 -9 -10z"/>
<path d="M4682 7744 c2 -11 11 -20 22 -22 13 -3 17 1 14 14 -2 11 -11 20 -22
22 -13 3 -17 -1 -14 -14z"/>
<path d="M5003 7729 c-2 -24 1 -30 15 -27 9 2 15 11 13 19 -2 8 -4 20 -4 27
-1 26 -22 10 -24 -19z"/>
<path d="M5477 7749 c-23 -13 -22 -29 2 -29 11 0 23 -12 31 -30 7 -16 17 -27
22 -24 5 3 3 13 -6 23 -9 10 -16 27 -16 39 0 26 -11 33 -33 21z"/>
<path d="M6315 7750 c3 -5 11 -10 16 -10 6 0 7 5 4 10 -3 6 -11 10 -16 10 -6
0 -7 -4 -4 -10z"/>
<path d="M7507 7749 c8 -8 16 -8 30 0 16 9 14 10 -11 11 -22 0 -27 -3 -19 -11z"/>
<path d="M3430 7735 c-6 -7 -7 -15 -3 -17 12 -7 69 7 58 13 -26 15 -45 17 -55
4z"/>
<path d="M5823 7737 c4 -10 7 -23 7 -28 0 -5 5 -9 10 -9 16 0 12 26 -7 41 -15
12 -16 12 -10 -4z"/>
<path d="M6584 7736 c-8 -21 3 -36 26 -36 30 0 32 16 5 34 -22 15 -26 15 -31
2z"/>
<path d="M4913 7732 c-6 -4 -7 -15 -2 -28 9 -26 28 -39 39 -28 11 12 -23 64
-37 56z"/>
<path d="M2631 7714 c0 -11 3 -14 6 -6 3 7 2 16 -1 19 -3 4 -6 -2 -5 -13z"/>
<path d="M2772 7721 c-10 -6 -10 -10 2 -20 10 -9 16 -9 21 -1 10 16 -7 31 -23
21z"/>
<path d="M2860 7711 c0 -15 46 -91 52 -86 9 10 -4 57 -18 62 -8 3 -14 11 -14
19 0 8 -4 14 -10 14 -5 0 -10 -4 -10 -9z"/>
<path d="M6147 7704 c8 -22 -6 -64 -22 -64 -11 0 -14 -9 -11 -32 3 -18 5 -38
5 -44 1 -19 39 -23 53 -7 11 13 9 18 -10 31 -31 20 -29 52 3 52 22 0 25 4 25
39 0 34 -3 39 -24 39 -17 0 -23 -5 -19 -14z"/>
<path d="M5432 7685 c0 -11 3 -29 8 -40 11 -25 11 1 0 35 -6 20 -8 21 -8 5z"/>
<path d="M6509 7668 c-34 -47 -50 -79 -47 -97 2 -11 13 -2 33 26 17 24 38 43
47 43 22 0 31 15 23 40 -9 29 -28 25 -56 -12z"/>
<path d="M3143 7683 c-30 -6 -32 -43 -2 -43 11 0 28 4 37 9 22 12 57 -12 49
-33 -3 -8 3 -22 14 -32 11 -10 18 -23 15 -30 -6 -15 25 -44 46 -44 9 0 18 -7
22 -15 3 -8 10 -15 15 -15 15 0 -7 49 -36 81 -13 14 -23 32 -23 40 -1 18 -39
63 -67 78 -22 11 -30 12 -70 4z"/>
<path d="M6013 7683 c-7 -3 -13 -10 -13 -17 0 -7 -10 -18 -22 -24 -21 -10 -22
-11 -3 -11 38 -1 65 11 65 30 0 21 -10 28 -27 22z"/>
<path d="M6733 7680 c-14 -6 -20 -15 -17 -27 4 -14 -4 -23 -28 -33 -27 -12
-33 -21 -33 -45 0 -48 27 -42 50 11 11 25 31 55 44 65 28 22 17 41 -16 29z"/>
<path d="M6912 7682 c-18 -12 -4 -42 20 -42 12 0 17 -4 12 -12 -4 -7 -3 -8 4
-4 16 10 15 20 -5 45 -12 13 -23 18 -31 13z"/>
<path d="M3435 7670 c3 -5 15 -10 26 -10 10 0 19 5 19 10 0 6 -12 10 -26 10
-14 0 -23 -4 -19 -10z"/>
<path d="M3596 7673 c-3 -3 -3 -10 0 -14 7 -12 34 -11 34 0 0 11 -26 22 -34
14z"/>
<path d="M5107 7673 c-13 -12 -7 -81 8 -93 31 -25 46 19 25 74 -9 26 -21 32
-33 19z"/>
<path d="M6387 7673 c-12 -12 -7 -51 7 -56 19 -8 26 1 26 35 0 26 -17 37 -33
21z"/>
<path d="M3052 7629 c7 -17 18 -30 23 -30 18 0 18 34 -1 48 -28 21 -35 15 -22
-18z"/>
<path d="M4620 7652 c0 -5 7 -17 15 -28 14 -18 14 -18 15 9 0 17 -5 27 -15 27
-8 0 -15 -4 -15 -8z"/>
<path d="M5038 7654 c-8 -13 9 -54 22 -54 5 0 10 6 10 13 0 19 -26 52 -32 41z"/>
<path d="M5280 7650 c0 -6 7 -10 15 -10 8 0 15 2 15 4 0 2 -7 6 -15 10 -8 3
-15 1 -15 -4z"/>
<path d="M7246 7652 c-10 -16 14 -37 41 -37 21 0 29 -5 31 -23 2 -13 -3 -25
-13 -28 -14 -6 -14 -8 2 -26 10 -11 16 -23 13 -27 -11 -14 78 -11 105 4 l30
16 -57 -4 -58 -4 0 44 c0 25 5 53 10 63 12 22 -7 41 -20 20 -5 -9 -9 -9 -14
-1 -8 13 -62 15 -70 3z"/>
<path d="M2478 7628 c-27 -24 -48 -88 -29 -88 6 0 11 9 11 20 0 12 14 29 35
42 35 23 46 48 22 48 -8 0 -25 -10 -39 -22z"/>
<path d="M2641 7635 c-18 -8 -37 -13 -41 -10 -5 3 -11 1 -15 -5 -3 -5 -15 -10
-25 -10 -10 0 -22 -5 -26 -12 -5 -8 -2 -9 9 -5 9 3 23 0 30 -8 19 -18 52 -9
72 21 8 13 22 24 30 24 8 0 15 5 15 10 0 13 -8 12 -49 -5z"/>
<path d="M3703 7642 c-29 -4 -31 -38 -3 -45 11 -3 17 -1 14 4 -3 6 0 17 7 25
14 18 11 21 -18 16z"/>
<path d="M4720 7642 c0 -4 9 -13 20 -20 18 -11 20 -10 20 8 0 13 -7 20 -20 20
-11 0 -20 -3 -20 -8z"/>
<path d="M6815 7640 c-18 -8 -17 -9 8 -9 15 -1 27 4 27 9 0 12 -8 12 -35 0z"/>
<path d="M3535 7630 c-3 -5 3 -10 15 -10 12 0 18 5 15 10 -3 6 -10 10 -15 10
-5 0 -12 -4 -15 -10z"/>
<path d="M6970 7630 c0 -10 41 -31 48 -25 1 1 0 10 -4 19 -7 17 -44 23 -44 6z"/>
<path d="M6260 7615 c-7 -9 -11 -18 -8 -20 3 -3 11 1 18 10 7 9 11 18 8 20 -3
3 -11 -1 -18 -10z"/>
<path d="M4945 7610 c-3 -5 1 -10 9 -10 9 0 16 5 16 10 0 6 -4 10 -9 10 -6 0
-13 -4 -16 -10z"/>
<path d="M6861 7594 c-12 -15 -21 -37 -21 -49 0 -12 -11 -32 -24 -44 -16 -15
-24 -34 -24 -52 2 -49 -65 -97 -74 -54 -3 13 -8 13 -38 -4 -34 -18 -35 -18
-62 1 -26 18 -27 18 -22 1 10 -31 28 -66 52 -102 25 -39 29 -86 7 -95 -22 -8
-18 -36 5 -36 14 0 20 7 20 24 0 15 12 34 31 51 30 24 32 25 50 9 24 -22 35
-11 21 21 -9 19 -8 30 3 52 8 15 15 34 15 41 0 25 41 92 55 92 12 0 14 8 9 39
-5 30 -3 39 11 45 10 3 24 1 31 -5 21 -18 17 -2 -6 21 -21 21 -27 50 -10 50 6
0 10 5 10 10 0 18 -18 10 -39 -16z m-131 -266 c0 -5 -9 -8 -20 -8 -23 0 -26
10 -8 28 9 9 14 9 20 -1 4 -6 8 -15 8 -19z"/>
<path d="M4190 7571 c0 -31 4 -41 21 -46 14 -5 19 -13 16 -26 -3 -11 0 -19 8
-19 17 0 26 -26 19 -54 -6 -24 17 -50 53 -58 30 -8 37 17 10 36 -21 14 -21 16
-5 29 21 17 14 27 -19 27 -12 0 -23 6 -23 13 0 7 -5 18 -12 25 -6 6 -13 18
-14 27 -1 8 -11 27 -23 43 -11 16 -18 32 -14 36 3 3 1 6 -5 6 -7 0 -12 -16
-12 -39z"/>
<path d="M2700 7590 c0 -5 5 -10 10 -10 6 0 10 5 10 10 0 6 -4 10 -10 10 -5 0
-10 -4 -10 -10z"/>
<path d="M2945 7590 c3 -5 8 -10 11 -10 2 0 4 5 4 10 0 6 -5 10 -11 10 -5 0
-7 -4 -4 -10z"/>
<path d="M3174 7578 l-19 -23 23 19 c21 18 27 26 19 26 -2 0 -12 -10 -23 -22z"/>
<path d="M3993 7563 c7 -41 20 -59 36 -48 8 4 7 13 -4 28 -8 12 -15 29 -15 39
0 10 -5 18 -11 18 -8 0 -10 -13 -6 -37z"/>
<path d="M6065 7590 c-3 -5 1 -10 10 -10 9 0 13 5 10 10 -3 6 -8 10 -10 10 -2
0 -7 -4 -10 -10z"/>
<path d="M7380 7579 c-12 -22 -8 -35 8 -25 13 8 22 46 11 46 -4 0 -13 -9 -19
-21z"/>
<path d="M2380 7560 c-10 -19 -12 -19 -35 -4 -25 16 -25 16 -27 -17 -5 -90 4
-154 24 -167 13 -9 17 -20 13 -34 -4 -12 0 -27 10 -38 10 -11 20 -41 22 -67 3
-26 12 -56 20 -65 9 -10 12 -25 8 -37 -4 -14 1 -24 18 -36 15 -9 28 -30 31
-49 3 -17 15 -49 25 -70 11 -21 17 -43 15 -51 -5 -13 21 -45 37 -45 5 0 9 -11
9 -23 0 -13 9 -32 21 -42 12 -12 19 -29 18 -45 -3 -34 10 -90 22 -90 5 0 9 -7
9 -15 0 -8 4 -15 9 -15 17 0 21 31 7 53 -17 27 -5 67 21 67 10 0 31 11 46 25
l27 26 0 -31 c0 -16 5 -30 11 -30 8 0 10 12 6 36 -8 46 -13 51 -39 35 -17 -11
-22 -11 -29 0 -6 10 -10 9 -15 -6 -18 -48 -60 -39 -74 16 -6 21 -15 41 -21 45
-6 3 -8 12 -5 19 3 8 -2 19 -10 25 -8 7 -14 22 -14 34 0 11 -7 29 -15 39 -7
11 -11 25 -9 32 3 7 -6 22 -20 33 -16 12 -24 26 -20 36 3 8 -6 40 -20 71 -14
31 -23 62 -19 70 9 25 -6 63 -27 70 -12 4 -23 21 -30 48 -6 23 -16 56 -21 73
-10 32 -4 64 12 64 5 0 9 -14 9 -30 0 -25 5 -41 27 -79 2 -2 18 7 38 20 25 17
35 31 35 50 0 29 -30 45 -50 25 -16 -16 -29 11 -23 49 6 38 -11 54 -27 25z"/>
<path d="M2966 7534 c-10 -76 -8 -91 14 -97 19 -5 20 -2 14 61 -8 83 -19 98
-28 36z"/>
<path d="M4646 7573 c-9 -9 -7 -93 2 -93 4 0 13 -4 21 -9 12 -8 12 -12 2 -25
-9 -11 -10 -20 -1 -35 12 -24 52 -28 69 -7 10 12 8 17 -7 25 -11 6 -22 8 -24
5 -3 -3 -8 2 -11 11 -4 9 -1 15 7 15 12 0 11 8 -2 43 -18 46 -45 80 -56 70z"/>
<path d="M5040 7565 c-11 -13 -10 -14 4 -9 9 3 16 10 16 15 0 13 -6 11 -20 -6z"/>
<path d="M6550 7561 c-13 -25 -13 -29 3 -28 45 1 67 -5 67 -18 0 -20 16 -19
24 1 4 9 -1 27 -9 40 -20 30 -70 33 -85 5z"/>
<path d="M7170 7556 c0 -13 -7 -29 -15 -36 -16 -13 -21 -40 -7 -40 4 0 18 -9
32 -19 20 -16 22 -22 11 -34 -10 -13 -7 -21 18 -46 43 -44 72 -43 31 1 -20 21
-27 57 -12 60 33 7 62 3 62 -8 0 -25 31 -45 61 -39 26 6 29 4 29 -18 0 -14 7
-28 16 -31 25 -10 29 1 13 31 -11 20 -11 27 -1 30 26 9 10 22 -20 16 -26 -5
-30 -3 -25 10 7 18 -11 27 -54 27 -16 0 -29 4 -29 8 0 11 -46 32 -69 32 -21 0
-36 26 -21 35 16 10 11 45 -5 45 -9 0 -15 -9 -15 -24z"/>
<path d="M2528 7559 c-27 -15 -22 -27 16 -34 34 -7 40 -18 48 -82 1 -7 12 -13
25 -13 13 0 26 -7 30 -15 5 -13 8 -13 20 5 18 25 8 43 -21 36 -32 -8 -50 8
-44 38 3 14 2 26 -2 26 -4 0 -12 11 -18 25 -12 27 -27 30 -54 14z"/>
<path d="M3880 7554 c0 -9 5 -14 12 -12 18 6 21 28 4 28 -9 0 -16 -7 -16 -16z"/>
<path d="M5620 7560 c0 -5 4 -10 9 -10 4 0 6 -10 4 -22 -3 -18 4 -27 31 -40
49 -24 53 -6 10 42 -36 39 -54 50 -54 30z"/>
<path d="M5953 7563 c-18 -6 -16 -30 3 -37 26 -10 34 -7 34 13 0 20 -17 31
-37 24z"/>
<path d="M7240 7556 c0 -9 7 -16 16 -16 9 0 14 5 12 12 -6 18 -28 21 -28 4z"/>
<path d="M3473 7550 c-31 -12 -29 -30 2 -30 14 0 25 2 25 4 0 2 3 11 6 20 7
18 0 19 -33 6z"/>
<path d="M5780 7546 c0 -15 24 -28 34 -19 13 14 5 33 -14 33 -11 0 -20 -6 -20
-14z"/>
<path d="M5880 7550 c0 -5 5 -10 11 -10 5 0 7 5 4 10 -3 6 -8 10 -11 10 -2 0
-4 -4 -4 -10z"/>
<path d="M2702 7538 c-17 -17 -15 -35 4 -42 23 -9 24 -8 24 18 0 30 -12 40
-28 24z"/>
<path d="M2782 7539 c2 -7 10 -15 17 -17 8 -3 12 1 9 9 -2 7 -10 15 -17 17 -8
3 -12 -1 -9 -9z"/>
<path d="M4946 7510 c21 -34 29 -32 20 5 -4 14 -13 25 -22 25 -13 0 -13 -4 2
-30z"/>
<path d="M6400 7521 c0 -10 -10 -30 -21 -45 -27 -34 -18 -45 47 -55 35 -5 48
-11 45 -22 -9 -35 -6 -44 16 -41 15 2 29 -7 44 -27 12 -17 26 -28 31 -25 11 7
10 54 -2 54 -5 0 -16 15 -24 34 -8 19 -33 51 -55 73 -23 21 -41 43 -41 49 0 7
-7 15 -16 18 -23 9 -24 8 -24 -13z"/>
<path d="M7495 7530 c-7 -12 12 -50 25 -50 11 0 12 6 4 38 -7 23 -19 29 -29
12z"/>
<path d="M2893 7523 c-20 -7 -15 -23 6 -23 10 0 21 7 25 15 5 15 -7 18 -31 8z"/>
<path d="M4850 7520 c0 -5 7 -10 16 -10 8 0 12 5 9 10 -3 6 -10 10 -16 10 -5
0 -9 -4 -9 -10z"/>
<path d="M6075 7515 c-3 -8 -7 -22 -10 -30 -3 -10 5 -19 20 -25 14 -5 25 -14
25 -19 0 -6 20 -19 46 -30 44 -20 45 -21 38 -56 -5 -29 -2 -38 17 -55 47 -39
63 -19 28 35 -11 17 -27 47 -37 67 -9 21 -31 45 -50 55 -18 10 -30 23 -28 30
3 6 -6 19 -20 28 -22 14 -25 14 -29 0z"/>
<path d="M5075 7510 c-3 -5 -2 -10 4 -10 5 0 13 5 16 10 3 6 2 10 -4 10 -5 0
-13 -4 -16 -10z"/>
<path d="M6950 7505 c-9 -11 -10 -19 -2 -27 14 -14 32 -1 32 23 0 23 -13 25
-30 4z"/>
<path d="M7660 7511 c-14 -4 -26 -14 -28 -22 -4 -24 55 -12 61 12 5 20 5 21
-33 10z"/>
<path d="M3515 7500 c-3 -5 -4 -14 -1 -19 3 -4 1 -23 -4 -41 -7 -26 -6 -38 5
-50 8 -9 15 -27 15 -39 0 -12 7 -29 15 -37 8 -9 15 -25 15 -36 0 -12 3 -18 7
-15 3 4 12 2 20 -4 10 -9 13 -7 14 7 2 31 -2 46 -15 59 -6 7 -11 34 -11 61 1
42 4 49 22 52 24 4 49 57 32 68 -6 3 -16 1 -22 -5 -14 -14 -57 -15 -57 -1 0 6
-6 10 -14 10 -8 0 -18 -4 -21 -10z"/>
<path d="M4380 7494 c0 -8 4 -14 9 -14 5 0 13 -9 16 -20 3 -11 13 -20 21 -20
29 0 0 62 -31 66 -8 1 -15 -4 -15 -12z"/>
<path d="M6200 7494 c0 -8 5 -12 10 -9 6 4 8 11 5 16 -9 14 -15 11 -15 -7z"/>
<path d="M7460 7499 c0 -9 7 -22 15 -29 19 -16 19 0 0 26 -12 16 -14 16 -15 3z"/>
<path d="M5150 7480 c0 -23 13 -26 29 -6 9 11 8 15 -5 20 -23 9 -24 8 -24 -14z"/>
<path d="M6530 7492 c0 -4 13 -23 28 -42 l29 -34 1 37 c1 20 -2 37 -6 38 -4 0
-17 2 -29 5 -13 2 -23 0 -23 -4z"/>
<path d="M6667 7494 c-4 -4 -7 -12 -7 -17 0 -6 3 -8 6 -4 4 3 19 0 35 -8 37
-20 41 -19 37 8 -2 16 -11 23 -33 25 -17 2 -34 0 -38 -4z"/>
<path d="M4020 7478 c0 -7 4 -19 9 -27 11 -17 25 3 17 24 -7 18 -26 20 -26 3z"/>
<path d="M5857 7483 c-11 -10 -8 -43 3 -43 20 0 25 5 22 20 -5 20 -17 32 -25
23z"/>
<path d="M3206 7455 c31 -28 59 -34 50 -9 -3 9 -6 20 -6 25 0 5 -16 9 -36 9
l-35 0 27 -25z"/>
<path d="M3920 7471 c0 -17 12 -41 20 -41 10 0 1 38 -11 46 -5 3 -9 1 -9 -5z"/>
<path d="M6243 7473 c-29 -5 -30 -34 -3 -58 24 -22 40 -11 43 30 2 30 -5 35
-40 28z"/>
<path d="M7040 7460 c-6 -11 -9 -20 -8 -21 18 -5 48 -4 48 2 0 15 -12 39 -21
39 -4 0 -13 -9 -19 -20z"/>
<path d="M3800 7461 c0 -12 29 -35 36 -28 11 10 -5 37 -21 37 -8 0 -15 -4 -15
-9z"/>
<path d="M7562 7454 c-12 -8 -20 -20 -17 -25 9 -14 25 -11 25 6 0 7 8 19 18
24 9 6 12 11 7 11 -6 0 -21 -7 -33 -16z"/>
<path d="M4828 7431 c-2 -17 -1 -36 3 -42 10 -16 0 -39 -17 -39 -21 0 -17 -21
5 -27 19 -5 37 -43 20 -43 -16 0 -10 -26 10 -44 11 -10 21 -30 23 -45 3 -22 8
-26 41 -29 20 -2 37 0 37 3 0 4 -12 22 -26 41 -16 21 -24 42 -21 54 3 10 -1
24 -9 31 -8 6 -14 22 -14 35 0 12 -5 26 -11 30 -6 3 -9 17 -6 30 2 13 -4 35
-13 49 l-17 27 -5 -31z"/>
<path d="M5095 7450 c-3 -5 -1 -10 4 -10 6 0 11 5 11 10 0 6 -2 10 -4 10 -3 0
-8 -4 -11 -10z"/>
<path d="M5547 7449 c-9 -6 -17 -14 -17 -19 0 -16 30 -11 37 5 8 21 1 25 -20
14z"/>
<path d="M3630 7420 c0 -11 5 -20 10 -20 6 0 10 9 10 20 0 11 -4 20 -10 20 -5
0 -10 -9 -10 -20z"/>
<path d="M7631 7425 c0 -11 4 -29 9 -40 8 -18 9 -18 9 5 0 14 -4 32 -9 40 -8
12 -10 12 -9 -5z"/>
<path d="M3400 7417 c0 -10 -6 -26 -12 -37 -9 -14 -10 -22 -1 -31 8 -8 14 -1
23 26 9 27 9 40 1 48 -8 8 -11 6 -11 -6z"/>
<path d="M7087 7424 c-15 -15 -6 -40 19 -51 23 -11 24 -10 18 10 -8 28 -28 50
-37 41z"/>
<path d="M2265 7410 c-3 -5 -1 -10 4 -10 6 0 11 5 11 10 0 6 -2 10 -4 10 -3 0
-8 -4 -11 -10z"/>
<path d="M2555 7400 c-10 -11 -24 -20 -31 -20 -18 0 -27 -18 -18 -38 4 -9 8
-21 10 -27 10 -38 31 -81 42 -88 6 -4 12 -20 12 -35 1 -36 35 -99 44 -83 11
17 -3 88 -20 102 -8 6 -14 21 -14 34 0 12 -9 30 -20 40 -11 10 -20 26 -20 35
0 9 9 27 20 40 11 13 20 31 20 42 0 23 -3 23 -25 -2z"/>
<path d="M4975 7398 c3 -13 6 -42 5 -65 -1 -52 14 -83 40 -83 15 0 20 7 20 29
0 17 -4 33 -10 36 -5 3 -10 13 -10 21 0 9 -7 22 -15 30 -8 9 -15 24 -15 35 0
10 -5 19 -11 19 -7 0 -9 -8 -4 -22z"/>
<path d="M5185 7393 c4 -16 7 -45 7 -66 0 -63 21 -36 24 31 3 57 1 62 -18 62
-17 0 -19 -4 -13 -27z"/>
<path d="M2132 7380 c0 -19 2 -27 5 -17 2 9 2 25 0 35 -3 9 -5 1 -5 -18z"/>
<path d="M4050 7400 c0 -15 27 -23 47 -16 15 6 15 8 3 16 -20 13 -50 12 -50 0z"/>
<path d="M5590 7391 c0 -11 5 -23 10 -26 6 -4 10 5 10 19 0 14 -4 26 -10 26
-5 0 -10 -9 -10 -19z"/>
<path d="M6297 7402 c-8 -12 26 -48 52 -55 l24 -6 -27 28 c-14 15 -23 30 -19
34 3 4 -1 7 -10 7 -9 0 -18 -3 -20 -8z"/>
<path d="M5977 7378 c-10 -11 -17 -22 -14 -24 8 -8 32 6 45 26 17 27 -6 26
-31 -2z"/>
<path d="M3467 7384 c-4 -4 -7 -20 -7 -36 0 -15 -4 -28 -10 -28 -5 0 -10 -5
-10 -11 0 -23 44 -3 51 23 7 28 -10 66 -24 52z"/>
<path d="M2280 7370 c0 -5 5 -10 10 -10 6 0 10 5 10 10 0 6 -4 10 -10 10 -5 0
-10 -4 -10 -10z"/>
<path d="M4485 7369 c-10 -15 3 -25 16 -12 7 7 7 13 1 17 -6 3 -14 1 -17 -5z"/>
<path d="M6056 7364 c-4 -10 -1 -14 6 -12 15 5 23 28 10 28 -5 0 -13 -7 -16
-16z"/>
<path d="M6960 7366 c0 -21 11 -46 20 -46 4 0 7 13 6 30 -1 29 -26 44 -26 16z"/>
<path d="M2965 7360 c4 -6 15 -8 25 -5 19 6 30 -17 30 -65 0 -26 16 -50 33
-50 4 0 7 10 5 23 -2 12 -9 21 -17 19 -10 -2 -12 6 -8 33 5 28 2 37 -13 45
-25 13 -63 13 -55 0z"/>
<path d="M2597 7346 c-4 -10 -5 -21 -2 -24 9 -9 17 6 13 25 -3 17 -4 17 -11
-1z"/>
<path d="M2700 7349 c0 -5 5 -7 10 -4 6 3 10 8 10 11 0 2 -4 4 -10 4 -5 0 -10
-5 -10 -11z"/>
<path d="M3915 7350 c4 -6 11 -8 16 -5 14 9 11 15 -7 15 -8 0 -12 -5 -9 -10z"/>
<path d="M2172 7338 c-7 -9 -5 -19 8 -35 l18 -22 4 24 c6 30 -14 52 -30 33z"/>
<path d="M5927 7343 c-4 -3 -7 -15 -7 -25 0 -22 26 -24 34 -2 10 25 -10 45
-27 27z"/>
<path d="M7344 7325 c22 -93 26 -123 20 -147 -5 -23 -2 -28 14 -28 28 0 34 51
10 90 -10 17 -18 43 -18 59 0 16 -7 35 -17 42 -15 13 -16 11 -9 -16z"/>
<path d="M2764 7329 c-3 -6 0 -17 8 -25 13 -13 16 -13 27 0 7 8 10 20 6 26 -8
13 -32 13 -41 -1z"/>
<path d="M4321 7314 c-14 -31 -14 -34 1 -34 6 0 24 -14 38 -32 25 -30 29 -31
43 -16 15 14 14 16 -12 21 -23 5 -30 13 -35 41 -9 45 -20 52 -35 20z"/>
<path d="M4719 7333 c-1 -5 -1 -11 0 -16 1 -4 -5 -23 -13 -41 -11 -26 -22 -36
-43 -39 l-28 -4 28 -2 c27 -1 44 -25 51 -71 4 -20 32 -25 39 -6 3 8 -1 20 -9
26 -20 18 -17 47 7 63 22 16 11 31 -15 21 -21 -8 -21 15 1 31 9 7 14 19 10 29
-6 16 -26 22 -28 9z"/>
<path d="M7160 7321 c0 -23 36 -35 44 -14 8 20 -1 33 -25 33 -12 0 -19 -7 -19
-19z"/>
<path d="M7624 7305 c-13 -29 -14 -38 -4 -48 10 -9 14 -9 17 1 3 7 14 17 24
23 17 9 21 6 30 -20 14 -39 39 -41 39 -3 0 53 -10 69 -36 64 -13 -2 -31 1 -38
7 -12 10 -18 5 -32 -24z"/>
<path d="M3386 7323 c-3 -4 -6 -17 -6 -30 0 -26 17 -36 49 -31 18 3 18 5 -9
35 -15 17 -31 29 -34 26z"/>
<path d="M5793 7314 c-3 -10 0 -22 8 -28 8 -6 13 -22 12 -36 -2 -14 6 -35 17
-48 16 -19 25 -22 55 -16 29 5 33 9 24 20 -6 8 -20 14 -30 14 -25 0 -24 6 7
43 19 23 22 32 12 38 -8 5 -20 0 -31 -12 -20 -22 -33 -17 -39 15 -4 26 -26 32
-35 10z"/>
<path d="M7426 7323 c-2 -3 4 -13 15 -24 23 -23 25 -45 5 -52 -9 -4 -12 -14
-9 -26 4 -17 9 -18 35 -9 16 6 32 16 34 23 11 27 -61 107 -80 88z"/>
<path d="M2050 7300 c-8 -14 -9 -35 -4 -59 4 -20 7 -41 6 -47 -1 -6 5 -17 13
-24 8 -7 15 -25 15 -40 0 -15 7 -33 15 -40 8 -6 14 -15 13 -18 -2 -9 10 -41
28 -74 8 -14 14 -36 14 -47 0 -12 6 -24 14 -27 15 -6 10 -44 -5 -44 -21 0 -8
-41 16 -50 14 -5 25 -14 25 -20 0 -6 11 -28 25 -48 29 -42 35 -83 10 -62 -24
20 -27 6 -9 -39 15 -39 17 -40 37 -26 29 21 37 19 37 -9 0 -19 4 -22 24 -19
41 8 46 53 6 53 -16 0 -18 5 -14 28 4 19 1 32 -10 41 -9 8 -16 24 -16 37 0 15
-6 24 -15 24 -20 0 -34 38 -28 73 4 20 1 27 -10 27 -22 0 -47 28 -47 51 0 10
7 19 15 19 9 0 15 10 15 26 0 14 -4 23 -10 19 -5 -3 -10 -13 -10 -21 0 -28
-34 -11 -44 23 -5 15 -1 25 15 36 24 17 16 41 -11 34 -35 -9 -63 48 -70 140
-7 92 -21 119 -40 83z"/>
<path d="M3852 7306 c1 -10 8 -17 13 -17 15 1 12 24 -3 29 -9 3 -13 -2 -10
-12z"/>
<path d="M4087 7313 c-15 -14 -6 -43 23 -75 22 -24 30 -28 30 -15 0 9 -5 17
-11 17 -7 0 -9 9 -6 22 9 34 -17 71 -36 51z"/>
<path d="M5346 7305 c-4 -10 1 -29 11 -44 14 -21 18 -23 21 -9 2 9 -3 29 -11
44 -12 23 -15 24 -21 9z"/>
<path d="M6402 7300 c0 -14 2 -19 5 -12 2 6 2 18 0 25 -3 6 -5 1 -5 -13z"/>
<path d="M3087 7303 c-13 -12 -7 -54 8 -60 19 -7 20 -5 30 26 5 16 4 21 -4 17
-6 -4 -11 0 -11 8 0 17 -12 21 -23 9z"/>
<path d="M6077 7304 c-14 -14 -7 -35 11 -32 9 2 17 10 17 17 0 16 -18 25 -28
15z"/>
<path d="M6320 7300 c0 -5 -8 -19 -17 -30 -13 -14 -20 -17 -30 -8 -10 8 -13 3
-13 -25 0 -33 -2 -36 -41 -42 -29 -5 -39 -11 -35 -21 3 -8 0 -24 -6 -34 -10
-16 -10 -23 5 -37 16 -16 17 -16 17 0 0 9 4 17 9 17 5 0 15 16 23 36 10 28 17
34 32 30 48 -12 90 20 65 50 -10 12 -9 13 5 8 9 -3 16 -13 16 -22 0 -12 3 -13
12 -4 8 8 8 15 -2 26 -7 9 -9 23 -6 33 4 9 1 20 -6 25 -18 11 -28 10 -28 -2z"/>
<path d="M1965 7290 c-3 -5 -1 -10 4 -10 6 0 11 5 11 10 0 6 -2 10 -4 10 -3 0
-8 -4 -11 -10z"/>
<path d="M3767 7293 c-4 -3 -7 -15 -7 -25 0 -22 26 -24 34 -2 10 25 -10 45
-27 27z"/>
<path d="M5745 7290 c-3 -5 1 -10 10 -10 9 0 13 5 10 10 -3 6 -8 10 -10 10 -2
0 -7 -4 -10 -10z"/>
<path d="M6500 7284 c0 -9 9 -18 19 -21 20 -5 34 -27 35 -53 1 -9 13 -16 34
-18 39 -4 41 8 6 39 -14 13 -35 34 -47 47 -24 26 -47 29 -47 6z"/>
<path d="M2635 7280 c-3 -5 1 -10 9 -10 9 0 16 5 16 10 0 6 -4 10 -9 10 -6 0
-13 -4 -16 -10z"/>
<path d="M6625 7280 c-3 -5 -1 -10 4 -10 6 0 11 5 11 10 0 6 -2 10 -4 10 -3 0
-8 -4 -11 -10z"/>
<path d="M7130 7271 c0 -11 -4 -23 -10 -26 -17 -11 -11 -20 16 -21 22 -2 25 1
22 29 -3 34 -28 51 -28 18z"/>
<path d="M7280 7276 c0 -8 5 -18 10 -21 6 -3 10 1 10 9 0 8 -4 18 -10 21 -5 3
-10 -1 -10 -9z"/>
<path d="M3670 7262 c0 -23 40 -102 51 -102 14 0 22 22 11 29 -6 3 -13 18 -17
33 -4 15 -15 34 -26 44 -18 16 -19 16 -19 -4z"/>
<path d="M4487 7274 c-15 -15 -5 -21 38 -21 25 0 45 4 45 9 0 4 -8 8 -17 8
-10 0 -27 3 -38 6 -11 3 -24 2 -28 -2z"/>
<path d="M5717 7260 c3 -11 7 -20 9 -20 2 0 4 9 4 20 0 11 -4 20 -9 20 -5 0
-7 -9 -4 -20z"/>
<path d="M5132 7246 c-9 -21 -6 -29 23 -59 19 -19 36 -33 39 -30 2 2 13 0 23
-5 26 -14 113 -26 113 -16 0 5 -13 15 -28 22 -16 6 -36 27 -45 45 -13 27 -16
29 -16 10 -1 -33 -40 -41 -63 -13 -10 12 -18 30 -18 41 0 28 -16 31 -28 5z"/>
<path d="M2269 7234 c-5 -15 -7 -29 -5 -32 10 -9 36 20 36 39 0 28 -19 23 -31
-7z"/>
<path d="M2505 7251 c-3 -5 -1 -12 5 -16 5 -3 10 1 10 9 0 18 -6 21 -15 7z"/>
<path d="M3898 7251 c-14 -5 -15 -9 -3 -31 12 -21 15 -23 20 -8 10 27 2 46
-17 39z"/>
<path d="M2146 7241 c9 -9 34 -9 34 -1 0 5 -9 8 -20 7 -10 -1 -17 -3 -14 -6z"/>
<path d="M2802 7241 c-11 -6 -10 -12 4 -26 20 -19 31 -6 17 19 -5 9 -13 12
-21 7z"/>
<path d="M2867 7243 c-3 -3 -3 -11 0 -19 7 -18 33 -18 33 0 0 14 -24 29 -33
19z"/>
<path d="M6103 7242 c-13 -2 -23 -9 -23 -16 0 -38 -65 -60 -98 -34 -7 6 -15 9
-17 6 -8 -8 16 -78 27 -78 16 0 88 51 88 62 0 5 12 20 28 33 30 26 29 33 -5
27z"/>
<path d="M1885 7198 c-73 -79 -105 -122 -102 -131 3 -10 6 -10 47 6 21 8 28
16 25 28 -4 10 4 22 20 33 14 9 25 24 25 33 0 9 7 24 16 34 9 10 14 23 12 29
-2 7 -22 -8 -43 -32z"/>
<path d="M3300 7231 c0 -5 7 -12 16 -15 22 -9 24 -8 18 9 -7 16 -34 21 -34 6z"/>
<path d="M3600 7200 c0 -29 5 -42 20 -50 12 -6 25 -21 31 -33 5 -12 17 -33 25
-47 l16 -25 -6 25 c-3 14 -6 37 -6 53 0 17 -5 27 -15 27 -9 0 -20 17 -27 45
-15 57 -38 60 -38 5z"/>
<path d="M4562 7215 c-25 -28 -15 -40 20 -22 14 7 22 19 20 30 -5 23 -14 22
-40 -8z"/>
<path d="M6476 7215 c-5 -19 -13 -25 -34 -25 -21 0 -24 2 -12 10 11 7 6 10
-20 9 -30 0 -32 -2 -14 -9 25 -10 38 -28 39 -50 0 -8 10 -16 23 -18 17 -3 22
2 22 17 0 12 5 21 10 21 6 0 10 16 10 35 0 40 -15 47 -24 10z"/>
<path d="M3130 7215 c17 -21 -7 -80 -39 -95 -20 -9 -22 -13 -10 -21 9 -6 18
-4 25 6 7 9 28 16 48 17 24 1 40 7 46 19 8 14 6 17 -14 15 -20 -3 -23 1 -21
23 3 30 -10 51 -32 51 -12 0 -13 -3 -3 -15z"/>
<path d="M3802 7218 c-16 -16 -15 -33 4 -48 22 -19 54 12 38 37 -14 22 -27 26
-42 11z"/>
<path d="M5020 7203 c-27 -19 -12 -40 36 -49 48 -9 52 0 16 34 -29 27 -33 28
-52 15z"/>
<path d="M5566 7211 c-4 -6 0 -11 9 -11 8 0 18 -8 22 -17 6 -18 63 -77 63 -66
0 3 -5 23 -12 44 -8 30 -16 39 -33 39 -11 0 -26 5 -32 11 -8 8 -13 8 -17 0z"/>
<path d="M6844 7206 c-8 -22 -2 -27 16 -16 12 7 12 12 3 21 -10 10 -14 9 -19
-5z"/>
<path d="M2720 7200 c0 -5 5 -10 10 -10 6 0 10 5 10 10 0 6 -4 10 -10 10 -5 0
-10 -4 -10 -10z"/>
<path d="M3050 7201 c0 -6 5 -13 10 -16 6 -3 10 1 10 9 0 9 -4 16 -10 16 -5 0
-10 -4 -10 -9z"/>
<path d="M4020 7206 c0 -2 7 -7 16 -10 8 -3 12 -2 9 4 -6 10 -25 14 -25 6z"/>
<path d="M6808 7203 c7 -3 16 -2 19 1 4 3 -2 6 -13 5 -11 0 -14 -3 -6 -6z"/>
<path d="M7775 7200 c-3 -5 -1 -10 4 -10 6 0 11 5 11 10 0 6 -2 10 -4 10 -3 0
-8 -4 -11 -10z"/>
<path d="M7850 7198 c0 -9 5 -20 10 -23 13 -8 13 5 0 25 -8 13 -10 13 -10 -2z"/>
<path d="M2207 7194 c-4 -4 -7 -14 -7 -23 0 -11 3 -12 11 -4 6 6 10 16 7 23
-2 6 -7 8 -11 4z"/>
<path d="M3520 7190 c0 -5 5 -10 10 -10 6 0 10 5 10 10 0 6 -4 10 -10 10 -5 0
-10 -4 -10 -10z"/>
<path d="M7197 7179 c4 -12 0 -25 -8 -29 -10 -7 -9 -10 6 -15 11 -4 28 -11 37
-16 27 -14 35 12 10 32 -12 9 -22 24 -22 33 0 9 -6 16 -14 16 -9 0 -12 -7 -9
-21z"/>
<path d="M7510 7191 c0 -5 7 -12 16 -15 22 -9 24 -8 24 9 0 8 -9 15 -20 15
-11 0 -20 -4 -20 -9z"/>
<path d="M3938 7179 c-10 -5 -18 -16 -18 -23 0 -22 31 -76 50 -86 10 -5 21
-21 24 -36 7 -28 19 -23 30 12 5 15 -2 30 -24 52 -17 18 -33 32 -38 32 -4 1
-6 14 -4 30 4 33 4 33 -20 19z"/>
<path d="M7292 7179 c2 -6 8 -10 13 -10 5 0 11 4 13 10 2 6 -4 11 -13 11 -9 0
-15 -5 -13 -11z"/>
<path d="M2280 7152 c0 -22 4 -32 12 -30 18 6 20 22 3 43 -14 19 -14 18 -15
-13z"/>
<path d="M3000 7165 c0 -9 6 -12 15 -9 8 4 12 10 9 15 -8 14 -24 10 -24 -6z"/>
<path d="M6906 7172 c-2 -4 -1 -14 4 -22 7 -11 12 -12 21 -3 6 6 8 16 5 22 -8
13 -23 14 -30 3z"/>
<path d="M7062 7163 c-11 -23 -1 -65 17 -71 10 -3 12 0 8 11 -3 9 -2 19 3 22
5 3 11 -4 15 -15 7 -23 13 -24 35 -9 13 8 12 12 -7 26 -13 8 -23 21 -23 28 0
7 -7 16 -16 19 -22 8 -22 8 -32 -11z"/>
<path d="M6375 7160 c-3 -5 -33 -10 -66 -10 -43 0 -59 -4 -59 -14 0 -20 28
-84 40 -91 16 -10 24 24 9 41 -37 45 1 61 42 18 19 -20 31 -24 54 -20 16 2 24
2 18 -1 -17 -6 -17 -23 0 -23 31 0 36 23 12 52 -14 16 -25 36 -25 44 0 16 -16
19 -25 4z"/>
<path d="M6718 7145 c-4 -19 -1 -25 13 -25 25 0 46 -38 24 -46 -22 -9 -19 -27
4 -19 13 4 20 0 24 -15 7 -28 26 -25 37 6 9 22 5 32 -27 74 -42 55 -68 63 -75
25z"/>
<path d="M7020 7160 c0 -5 5 -10 11 -10 5 0 7 5 4 10 -3 6 -8 10 -11 10 -2 0
-4 -4 -4 -10z"/>
<path d="M2895 7133 c9 -36 12 -38 29 -24 12 10 13 16 3 32 -19 30 -41 24 -32
-8z"/>
<path d="M3410 7145 c7 -9 15 -13 17 -11 7 7 -7 26 -19 26 -6 0 -6 -6 2 -15z"/>
<path d="M4418 7153 c-10 -2 -18 -12 -18 -21 0 -23 16 -46 24 -34 3 5 17 7 31
4 21 -4 24 -1 19 14 -9 24 -24 44 -33 43 -3 -1 -14 -3 -23 -6z"/>
<path d="M5363 7149 c-6 -6 -8 -19 -6 -30 4 -15 14 -19 49 -19 24 0 44 4 44 9
0 15 -18 22 -25 11 -9 -14 -35 6 -35 26 0 17 -12 18 -27 3z"/>
<path d="M5878 7153 c-10 -2 -18 -8 -18 -13 0 -20 13 -40 26 -40 8 0 14 -4 14
-10 0 -18 18 -11 25 9 5 18 -13 63 -25 60 -3 -1 -13 -3 -22 -6z"/>
<path d="M6558 7153 c-20 -5 -24 -28 -8 -38 6 -3 10 -14 10 -25 0 -10 8 -21
17 -24 29 -12 44 36 23 75 -11 19 -13 20 -42 12z"/>
<path d="M7654 7142 c-9 -14 -8 -24 2 -43 l14 -24 -2 30 c-2 17 3 35 12 42 13
11 13 12 0 13 -8 0 -20 -8 -26 -18z"/>
<path d="M7792 7149 c2 -7 10 -15 17 -17 8 -3 12 1 9 9 -2 7 -10 15 -17 17 -8
3 -12 -1 -9 -9z"/>
<path d="M4135 7140 c-3 -6 2 -13 12 -17 10 -4 24 -13 31 -20 15 -15 42 -7 42
13 0 9 -11 14 -30 14 -16 0 -30 5 -30 10 0 13 -17 13 -25 0z"/>
<path d="M5480 7135 c0 -8 7 -15 15 -15 8 0 15 7 15 15 0 8 -7 15 -15 15 -8 0
-15 -7 -15 -15z"/>
<path d="M4317 7133 c-4 -3 -7 -10 -7 -14 0 -11 29 -19 35 -10 6 11 -20 33
-28 24z"/>
<path d="M6095 7130 c-8 -13 5 -13 25 0 13 8 13 10 -2 10 -9 0 -20 -4 -23 -10z"/>
<path d="M6977 7133 c-12 -11 -8 -20 19 -52 20 -24 24 -37 19 -59 -8 -40 17
-62 43 -38 10 9 22 13 25 9 4 -3 7 -1 7 5 0 7 -6 12 -12 12 -7 0 -21 20 -31
44 -19 46 -59 91 -70 79z"/>
<path d="M7860 7122 c0 -11 9 -29 20 -42 23 -26 27 -11 10 34 -11 30 -30 35
-30 8z"/>
<path d="M2012 7118 c-7 -7 -12 -17 -12 -24 0 -14 -23 -24 -56 -24 -13 0 -24
-4 -24 -10 0 -5 9 -10 20 -10 11 0 20 -7 20 -15 0 -8 -9 -15 -19 -15 -21 0
-36 -26 -21 -35 19 -12 100 46 100 71 0 6 6 14 14 17 9 4 12 14 9 27 -7 26
-17 32 -31 18z"/>
<path d="M2150 7109 c0 -11 5 -17 10 -14 6 3 10 13 10 21 0 8 -4 14 -10 14 -5
0 -10 -9 -10 -21z"/>
<path d="M5555 7120 c-3 -5 -15 -10 -25 -10 -41 0 -33 -51 10 -67 39 -15 69
-76 52 -103 -13 -22 -12 -23 83 -40 124 -22 288 -64 390 -100 131 -46 150 -49
159 -25 7 19 -15 29 -48 23 -18 -4 -27 1 -35 19 -6 12 -17 23 -26 23 -9 0 -15
9 -15 26 0 17 -6 28 -20 31 -16 4 -20 14 -20 48 0 24 -3 50 -6 59 -5 14 -7 14
-21 0 -12 -11 -13 -18 -4 -27 6 -6 11 -30 11 -54 0 -24 5 -43 11 -43 5 0 7 -4
4 -10 -11 -17 -49 -10 -79 14 -23 19 -27 29 -22 50 7 29 4 31 -26 15 -16 -8
-19 -17 -14 -40 8 -39 -6 -37 -54 11 -45 44 -60 49 -60 21 0 -12 -9 -20 -24
-23 -31 -6 -39 0 -51 37 -14 39 -29 38 -33 -2 -2 -18 -6 -33 -10 -33 -11 1
-42 47 -45 69 -2 11 -11 29 -20 39 -9 10 -17 23 -17 29 0 5 -9 18 -20 28 -12
10 -18 25 -16 32 6 15 0 17 -9 3z"/>
<path d="M3834 7103 c2 -10 8 -29 11 -43 13 -44 47 -92 58 -81 5 5 6 17 1 28
-4 10 -8 23 -9 29 0 6 -9 28 -20 48 -20 37 -50 51 -41 19z"/>
<path d="M6898 7103 c7 -3 16 -2 19 1 4 3 -2 6 -13 5 -11 0 -14 -3 -6 -6z"/>
<path d="M2290 7085 c0 -16 16 -20 24 -6 3 5 -1 11 -9 15 -9 3 -15 0 -15 -9z"/>
<path d="M3570 7092 c0 -6 -7 -9 -15 -6 -10 4 -15 0 -15 -10 0 -13 6 -15 28
-10 35 9 35 9 17 24 -10 8 -15 9 -15 2z"/>
<path d="M4908 7078 c-3 -20 -8 -23 -38 -20 -19 2 -36 8 -38 13 -6 15 -22 10
-22 -6 0 -21 -82 -16 -92 5 -5 11 -7 9 -7 -7 -1 -12 5 -24 12 -27 6 -3 -6 -3
-28 0 -48 7 -44 7 -76 5 -20 -1 -29 -8 -33 -25 -11 -43 2 -59 43 -51 33 6 156
21 224 27 15 2 32 9 37 17 7 12 11 12 24 2 9 -7 22 -11 31 -8 8 4 17 2 20 -3
4 -6 14 -6 27 1 15 8 27 8 45 -2 20 -11 28 -11 45 0 17 11 23 10 39 -8 24 -25
119 -31 119 -7 0 7 6 19 14 25 15 13 26 -4 26 -39 0 -15 11 -18 83 -22 45 -3
86 -1 91 4 17 14 34 9 32 -9 -1 -14 8 -19 42 -21 25 -2 42 1 42 7 0 6 -11 11
-25 11 -20 0 -27 6 -31 28 -10 50 -119 84 -119 37 0 -29 -13 -44 -34 -42 -18
1 -18 3 -5 29 11 21 12 33 4 48 -12 23 -20 24 -55 8 -23 -10 -28 -10 -37 5 -5
10 -14 15 -19 11 -6 -3 -19 2 -30 12 -17 15 -21 16 -36 2 -29 -26 -61 -31 -79
-14 -18 19 -56 13 -97 -15 -26 -19 -28 -19 -34 -2 -6 18 -42 52 -55 53 -4 0
-8 -10 -10 -22z"/>
<path d="M6480 7090 c0 -5 5 -10 11 -10 5 0 7 5 4 10 -3 6 -8 10 -11 10 -2 0
-4 -4 -4 -10z"/>
<path d="M2616 7083 c-12 -12 -6 -43 9 -43 8 0 15 9 15 19 0 21 -13 34 -24 24z"/>
<path d="M2770 7081 c0 -6 5 -13 10 -16 6 -3 10 1 10 9 0 9 -4 16 -10 16 -5 0
-10 -4 -10 -9z"/>
<path d="M7172 7082 c-18 -3 -21 -8 -16 -27 5 -20 1 -25 -19 -30 -23 -6 -36
-29 -37 -62 0 -7 10 -17 21 -24 20 -10 21 -9 16 9 -3 12 1 26 9 33 8 6 14 20
14 30 0 26 16 32 35 13 10 -11 14 -25 11 -40 -5 -20 -2 -24 14 -24 16 0 20 4
15 19 -3 11 -1 22 5 26 16 10 12 28 -5 21 -15 -6 -24 6 -29 38 -3 20 -7 22
-34 18z"/>
<path d="M7360 7079 c0 -5 5 -7 10 -4 6 3 10 8 10 11 0 2 -4 4 -10 4 -5 0 -10
-5 -10 -11z"/>
<path d="M7790 7081 c0 -23 40 -75 61 -78 22 -3 22 -3 -3 20 -14 13 -28 32
-29 42 -4 20 -29 34 -29 16z"/>
<path d="M2652 7060 c0 -14 2 -19 5 -12 2 6 2 18 0 25 -3 6 -5 1 -5 -13z"/>
<path d="M4066 7071 c-7 -10 22 -37 30 -28 4 3 -1 13 -9 22 -9 8 -18 11 -21 6z"/>
<path d="M5882 7060 c0 -14 2 -19 5 -12 2 6 2 18 0 25 -3 6 -5 1 -5 -13z"/>
<path d="M6220 7060 c6 -11 15 -18 20 -15 13 8 0 35 -16 35 -12 0 -12 -4 -4
-20z"/>
<path d="M6101 7056 c-9 -10 -8 -15 4 -20 10 -4 15 1 15 14 0 24 -4 25 -19 6z"/>
<path d="M6671 7054 c0 -11 3 -14 6 -6 3 7 2 16 -1 19 -3 4 -6 -2 -5 -13z"/>
<path d="M7646 7062 c-15 -24 -16 -72 -1 -72 20 0 24 12 16 50 -4 23 -10 31
-15 22z"/>
<path d="M3405 7045 c-3 -8 -7 -22 -10 -31 -4 -12 -1 -15 11 -10 8 3 20 6 25
6 5 0 9 11 9 25 0 28 -27 35 -35 10z"/>
<path d="M2053 7044 c3 -4 2 -15 -4 -26 -8 -14 -5 -25 9 -46 11 -15 21 -36 23
-46 5 -23 29 -34 29 -13 0 8 -6 20 -14 26 -7 6 -13 29 -13 50 0 42 -8 61 -25
61 -6 0 -8 -3 -5 -6z"/>
<path d="M2235 7040 c3 -5 10 -10 16 -10 5 0 9 5 9 10 0 6 -7 10 -16 10 -8 0
-12 -4 -9 -10z"/>
<path d="M4390 7034 c0 -9 5 -14 12 -12 18 6 21 28 4 28 -9 0 -16 -7 -16 -16z"/>
<path d="M5792 7025 c-9 -20 -9 -25 2 -25 17 0 30 30 18 42 -5 5 -14 -3 -20
-17z"/>
<path d="M6530 7035 c7 -8 16 -15 21 -15 5 0 9 7 9 15 0 9 -9 15 -21 15 -18 0
-19 -2 -9 -15z"/>
<path d="M3120 7025 c0 -9 5 -15 11 -13 6 2 11 8 11 13 0 5 -5 11 -11 13 -6 2
-11 -4 -11 -13z"/>
<path d="M3201 7021 c-16 -28 -14 -37 8 -38 32 -3 44 21 22 41 -18 17 -20 17
-30 -3z"/>
<path d="M4496 7005 c-16 -24 -21 -25 -62 -19 -34 5 -44 3 -44 -8 0 -29 22
-38 51 -21 22 13 33 14 52 6 24 -11 77 -7 77 6 0 4 -13 20 -29 35 l-28 27 -17
-26z"/>
<path d="M6624 7014 c3 -9 6 -24 6 -34 0 -20 34 -45 49 -35 15 8 0 44 -20 50
-10 4 -19 13 -19 21 0 8 -5 14 -11 14 -6 0 -8 -7 -5 -16z"/>
<path d="M1790 6994 c-6 -16 -16 -32 -23 -36 -7 -4 -3 -10 13 -16 22 -9 26 -6
38 21 11 26 11 32 -2 45 -14 14 -16 12 -26 -14z"/>
<path d="M3690 7007 c0 -30 28 -54 59 -49 35 5 32 22 -4 22 -15 0 -26 7 -30
20 -7 22 -25 27 -25 7z"/>
<path d="M4297 7006 c-3 -8 -2 -18 3 -21 21 -13 9 -27 -17 -21 -27 7 -83 -10
-83 -25 0 -15 46 -21 91 -12 41 8 44 11 41 39 -4 37 -26 63 -35 40z"/>
<path d="M6836 7004 c-3 -9 -6 -23 -6 -32 0 -13 6 -10 25 10 30 32 31 38 6 38
-10 0 -22 -7 -25 -16z"/>
<path d="M7716 6993 c-7 -24 5 -42 27 -43 11 0 25 42 20 58 -9 23 -41 13 -47
-15z"/>
<path d="M6310 6999 c0 -12 49 -43 57 -36 3 4 1 13 -6 21 -14 17 -51 28 -51
15z"/>
<path d="M6745 7000 c3 -5 10 -10 16 -10 5 0 9 5 9 10 0 6 -7 10 -16 10 -8 0
-12 -4 -9 -10z"/>
<path d="M2800 6981 c0 -20 25 -35 42 -25 5 3 2 14 -8 25 -22 24 -34 24 -34 0z"/>
<path d="M2284 6949 c3 -24 5 -47 5 -51 1 -5 6 -8 11 -8 16 0 12 76 -5 90 -13
11 -15 7 -11 -31z"/>
<path d="M6449 6973 c-13 -15 -11 -16 20 -10 18 4 37 7 42 7 5 0 9 5 9 10 0
17 -57 11 -71 -7z"/>
<path d="M6947 6984 c-11 -11 -8 -44 4 -44 6 0 8 -8 4 -19 -10 -32 46 -119 78
-121 4 0 3 9 -3 19 -5 11 -10 28 -10 39 0 11 -7 23 -16 26 -11 4 -14 14 -11
29 6 23 -33 83 -46 71z"/>
<path d="M7847 6970 c-5 -18 -1 -20 33 -18 33 3 37 5 29 21 -13 24 -55 22 -62
-3z"/>
<path d="M3160 6970 c0 -5 5 -10 11 -10 5 0 7 5 4 10 -3 6 -8 10 -11 10 -2 0
-4 -4 -4 -10z"/>
<path d="M6136 6973 c-15 -15 -5 -43 18 -49 26 -6 46 1 46 16 0 12 -56 41 -64
33z"/>
<path d="M2917 6964 c-12 -12 3 -22 24 -17 16 4 17 8 7 14 -16 10 -23 11 -31
3z"/>
<path d="M2360 6956 c0 -2 7 -7 16 -10 8 -3 12 -2 9 4 -6 10 -25 14 -25 6z"/>
<path d="M3590 6945 c0 -8 7 -15 15 -15 8 0 15 4 15 9 0 5 -7 11 -15 15 -9 3
-15 0 -15 -9z"/>
<path d="M3130 6940 c0 -5 5 -10 11 -10 5 0 7 5 4 10 -3 6 -8 10 -11 10 -2 0
-4 -4 -4 -10z"/>
<path d="M7256 6927 c-9 -13 -16 -29 -15 -33 4 -22 -2 -34 -18 -34 -16 0 -18
-9 -15 -77 4 -75 15 -109 33 -98 11 8 29 -28 29 -59 0 -14 5 -26 10 -26 6 0 9
-12 8 -27 -5 -70 2 -121 18 -127 10 -4 15 0 13 12 -1 9 -1 25 0 35 1 16 3 16
26 1 27 -18 33 -39 13 -47 -7 -3 -3 -6 10 -6 18 -1 22 -7 22 -31 0 -43 19 -78
46 -83 14 -2 27 -1 29 4 8 12 -12 56 -29 62 -11 4 -16 19 -16 42 0 20 -9 48
-20 63 -11 15 -21 36 -23 48 -1 12 -10 33 -20 47 -9 15 -17 29 -17 33 0 4 -7
12 -16 19 -22 15 -12 45 28 84 17 17 29 34 25 37 -4 4 -18 -5 -31 -19 -14 -15
-27 -27 -30 -27 -16 0 -36 14 -36 26 0 8 -10 28 -22 45 -20 27 -21 32 -8 42 8
7 24 29 35 49 18 35 18 39 3 54 -15 15 -17 14 -32 -9z"/>
<path d="M7470 6936 c-13 -16 -12 -20 3 -31 9 -6 14 -15 10 -19 -11 -11 19
-55 33 -49 20 8 17 41 -5 53 -11 5 -21 22 -23 37 -3 25 -4 25 -18 9z"/>
<path d="M1840 6930 c0 -5 5 -10 10 -10 6 0 10 5 10 10 0 6 -4 10 -10 10 -5 0
-10 -4 -10 -10z"/>
<path d="M2682 6916 c2 -16 9 -31 16 -34 17 -5 15 19 -4 43 -15 19 -15 19 -12
-9z"/>
<path d="M2772 6920 c0 -14 2 -19 5 -12 2 6 2 18 0 25 -3 6 -5 1 -5 -13z"/>
<path d="M4080 6921 c0 -16 6 -21 26 -21 33 0 30 33 -4 38 -17 3 -22 -2 -22
-17z"/>
<path d="M6910 6925 c0 -8 5 -15 10 -15 6 0 10 7 10 15 0 8 -4 15 -10 15 -5 0
-10 -7 -10 -15z"/>
<path d="M7065 6930 c-3 -5 -1 -10 4 -10 6 0 11 5 11 10 0 6 -2 10 -4 10 -3 0
-8 -4 -11 -10z"/>
<path d="M3907 6924 c-4 -4 -2 -13 4 -20 7 -9 7 -19 -1 -34 -14 -27 -6 -37 15
-20 10 8 15 25 13 43 -3 30 -18 44 -31 31z"/>
<path d="M6854 6916 c-7 -20 2 -46 16 -46 13 0 13 47 0 55 -6 3 -13 -1 -16 -9z"/>
<path d="M1718 6895 c-10 -13 -18 -34 -18 -46 0 -12 8 -28 18 -35 16 -13 16
-15 -3 -30 -19 -15 -19 -16 -2 -29 10 -7 22 -25 26 -40 6 -26 8 -26 23 -12 16
16 14 57 -2 57 -5 0 -6 9 -3 20 6 24 23 17 23 -10 0 -29 48 -80 76 -80 19 0
24 5 24 24 0 21 -5 24 -27 23 -23 -2 -29 4 -39 33 -8 24 -21 38 -42 47 -37 15
-48 31 -33 46 12 12 15 57 4 57 -5 0 -16 -11 -25 -25z"/>
<path d="M2620 6901 c0 -12 6 -21 16 -21 9 0 14 7 12 17 -5 25 -28 28 -28 4z"/>
<path d="M7852 6908 c-20 -20 -14 -38 14 -38 34 0 63 28 43 41 -20 12 -43 11
-57 -3z"/>
<path d="M3446 6885 c-4 -10 1 -15 14 -15 11 0 20 7 20 15 0 8 -6 15 -14 15
-8 0 -16 -7 -20 -15z"/>
<path d="M3670 6890 c0 -5 5 -10 11 -10 5 0 7 5 4 10 -3 6 -8 10 -11 10 -2 0
-4 -4 -4 -10z"/>
<path d="M6280 6886 c0 -7 11 -16 25 -18 30 -6 33 7 6 22 -26 13 -31 13 -31
-4z"/>
<path d="M6430 6887 c0 -20 25 -50 38 -46 6 2 0 16 -14 32 -13 16 -24 22 -24
14z"/>
<path d="M6510 6884 c0 -8 5 -12 10 -9 6 3 10 10 10 16 0 5 -4 9 -10 9 -5 0
-10 -7 -10 -16z"/>
<path d="M7757 6878 c-6 -23 8 -58 23 -58 6 0 10 18 10 40 0 44 -23 57 -33 18z"/>
<path d="M1986 6849 c-10 -22 -15 -43 -12 -46 9 -10 57 48 54 65 -6 29 -23 21
-42 -19z"/>
<path d="M2427 6872 c6 -4 13 -20 15 -36 3 -33 25 -46 34 -22 8 21 -22 66 -44
66 -11 0 -13 -3 -5 -8z"/>
<path d="M2786 6853 c13 -55 39 -59 28 -5 -4 18 -13 32 -20 32 -11 0 -13 -8
-8 -27z"/>
<path d="M2881 6864 c0 -11 3 -14 6 -6 3 7 2 16 -1 19 -3 4 -6 -2 -5 -13z"/>
<path d="M6551 6841 c-6 -10 -8 -21 -5 -24 10 -10 42 16 37 30 -7 18 -21 16
-32 -6z"/>
<path d="M1618 6843 c-13 -3 -18 -15 -18 -42 0 -21 -11 -60 -25 -87 -30 -58
-37 -167 -10 -144 8 7 15 25 15 40 0 21 7 30 30 40 32 13 36 20 21 36 -5 5
-12 30 -15 57 -6 37 -4 47 7 47 8 0 17 10 21 23 10 39 10 40 -26 30z"/>
<path d="M3000 6836 c0 -21 20 -30 33 -17 9 9 8 14 -3 21 -21 14 -30 12 -30
-4z"/>
<path d="M7304 6825 c1 -29 13 -31 44 -9 28 19 20 34 -18 34 -23 0 -28 -4 -26
-25z"/>
<path d="M7883 6844 c3 -5 -7 -10 -21 -9 -35 0 -37 -29 -2 -34 14 -1 29 -8 33
-15 7 -10 3 -66 -9 -129 l-6 -28 -19 25 c-16 21 -18 29 -9 47 17 31 -3 49 -28
26 -10 -9 -21 -15 -24 -12 -16 16 2 -75 20 -105 24 -38 29 -106 10 -113 -21
-7 -4 -17 19 -11 12 3 23 14 26 25 3 10 12 19 21 19 20 0 16 -21 -7 -38 -14
-11 -15 -17 -6 -28 14 -17 41 -18 57 -2 15 15 41 -16 42 -49 0 -42 17 -23 24
26 9 71 -3 161 -22 161 -13 0 -13 2 1 18 14 16 21 41 18 70 -2 19 -50 -19 -51
-39 0 -27 -25 -42 -39 -25 -13 16 -6 56 9 56 5 0 10 10 12 22 2 13 15 29 31
36 16 8 27 21 27 33 0 19 -1 19 -22 5 -33 -23 -38 -20 -38 24 0 22 -4 40 -9
40 -5 0 -17 3 -27 7 -10 4 -15 2 -11 -3z m97 -290 c0 -2 -7 -4 -15 -4 -8 0
-15 4 -15 10 0 5 7 7 15 4 8 -4 15 -8 15 -10z"/>
<path d="M3785 6820 c3 -5 10 -10 16 -10 5 0 9 5 9 10 0 6 -7 10 -16 10 -8 0
-12 -4 -9 -10z"/>
<path d="M6235 6819 c-4 -6 -5 -12 -2 -15 2 -3 7 2 10 11 7 17 1 20 -8 4z"/>
<path d="M6720 6814 c0 -8 5 -12 10 -9 6 4 8 11 5 16 -9 14 -15 11 -15 -7z"/>
<path d="M1897 6805 c-35 -25 -8 -46 37 -29 21 8 20 17 -2 30 -14 9 -22 9 -35
-1z"/>
<path d="M2894 6811 c4 -5 0 -11 -6 -14 -10 -3 -10 -8 -2 -16 8 -9 14 -8 23 3
13 16 7 36 -10 36 -6 0 -8 -4 -5 -9z"/>
<path d="M7710 6817 c0 -2 14 -16 30 -32 27 -26 30 -27 30 -8 0 12 -10 25 -25
31 -27 12 -35 14 -35 9z"/>
<path d="M3450 6803 c13 -3 29 -12 36 -21 6 -9 18 -13 28 -9 27 11 18 24 -21
31 -43 7 -81 6 -43 -1z"/>
<path d="M7065 6800 c-3 -5 -1 -10 4 -10 6 0 11 5 11 10 0 6 -2 10 -4 10 -3 0
-8 -4 -11 -10z"/>
<path d="M3243 6788 c2 -7 10 -13 17 -13 7 0 15 6 18 13 2 7 -5 12 -18 12 -13
0 -20 -5 -17 -12z"/>
<path d="M7116 6784 c-3 -9 -6 -22 -6 -31 0 -13 2 -13 15 1 17 17 19 32 6 40
-5 3 -12 -1 -15 -10z"/>
<path d="M7400 6785 c0 -8 7 -15 15 -15 8 0 15 7 15 15 0 8 -7 15 -15 15 -8 0
-15 -7 -15 -15z"/>
<path d="M7520 6776 c0 -14 4 -26 10 -26 5 0 12 -11 16 -25 7 -30 20 -32 34
-6 13 26 13 31 -4 31 -8 0 -16 10 -18 22 -5 34 -38 37 -38 4z"/>
<path d="M2837 6783 c-13 -12 -7 -41 9 -47 26 -10 34 -7 34 12 0 28 -28 51
-43 35z"/>
<path d="M6796 6774 c-6 -16 6 -82 24 -128 17 -47 28 -19 14 36 -8 29 -14 65
-14 80 0 30 -14 38 -24 12z"/>
<path d="M2004 6755 c-14 -22 -15 -30 -4 -53 l13 -27 11 26 c6 14 17 33 24 42
8 9 11 21 7 27 -11 18 -34 11 -51 -15z"/>
<path d="M2123 6768 c-24 -8 -33 -17 -33 -33 0 -36 24 -50 52 -31 12 9 30 16
40 16 13 0 18 8 18 30 0 33 -16 37 -77 18z"/>
<path d="M3615 6769 c-10 -14 -1 -21 19 -13 9 3 13 10 10 15 -7 12 -21 11 -29
-2z"/>
<path d="M6385 6755 c18 -49 17 -55 -1 -55 -17 0 -17 -1 -2 -16 37 -37 52 23
17 66 -17 20 -20 21 -14 5z"/>
<path d="M2760 6752 c0 -5 12 -14 26 -21 23 -10 26 -10 20 4 -3 9 -6 19 -6 21
0 2 -9 4 -20 4 -11 0 -20 -4 -20 -8z"/>
<path d="M3417 6753 c-10 -10 -8 -33 3 -33 5 0 14 9 20 20 8 15 8 20 -3 20 -8
0 -17 -3 -20 -7z"/>
<path d="M3560 6750 c0 -5 4 -10 9 -10 6 0 13 5 16 10 3 6 -1 10 -9 10 -9 0
-16 -4 -16 -10z"/>
<path d="M6622 6749 c-15 -5 -22 -16 -20 -26 4 -22 48 -31 48 -10 0 9 3 22 6
31 7 18 0 19 -34 5z"/>
<path d="M6873 6753 c-20 -7 -15 -23 7 -23 11 0 20 4 20 9 0 13 -12 19 -27 14z"/>
<path d="M7023 6745 c-8 -22 6 -33 17 -15 13 20 12 30 0 30 -6 0 -13 -7 -17
-15z"/>
<path d="M2365 6718 c4 -13 7 -31 8 -40 1 -10 7 -18 14 -18 8 0 13 14 13 40 0
34 -3 40 -21 40 -18 0 -20 -4 -14 -22z"/>
<path d="M2960 6720 c0 -22 1 -23 24 -14 13 5 14 9 5 20 -16 20 -29 17 -29 -6z"/>
<path d="M3493 6724 c-31 -13 -49 -31 -40 -40 6 -7 77 36 77 47 0 5 -1 9 -2 8
-2 0 -17 -7 -35 -15z"/>
<path d="M6312 6731 c-10 -6 -10 -10 0 -18 19 -15 48 -23 48 -14 0 16 -36 40
-48 32z"/>
<path d="M2713 6723 c-7 -3 -13 -13 -13 -23 0 -10 -14 -27 -30 -37 -52 -30
-49 -94 4 -92 18 0 19 2 5 11 -15 10 -15 13 0 40 9 15 23 28 32 28 18 0 29 20
29 50 0 22 -9 29 -27 23z"/>
<path d="M3075 6720 c-3 -5 -2 -10 4 -10 5 0 13 5 16 10 3 6 2 10 -4 10 -5 0
-13 -4 -16 -10z"/>
<path d="M7450 6707 c0 -22 31 -57 50 -57 7 0 7 6 0 19 -5 11 -10 29 -10 40 0
14 -6 21 -20 21 -14 0 -20 -7 -20 -23z"/>
<path d="M3355 6710 c3 -5 11 -10 16 -10 6 0 7 5 4 10 -3 6 -11 10 -16 10 -6
0 -7 -4 -4 -10z"/>
<path d="M6977 6703 c3 -10 13 -26 21 -36 12 -14 13 -22 4 -42 -6 -14 -17 -25
-24 -25 -17 0 -50 -58 -38 -65 5 -3 20 -3 34 1 17 4 26 14 28 32 2 19 9 27 23
27 17 0 20 -6 19 -40 -1 -22 0 -34 3 -27 8 20 33 -6 33 -33 0 -27 16 -35 53
-28 33 7 35 31 3 39 -21 5 -36 36 -36 75 0 15 28 10 34 -6 3 -8 11 -15 18 -15
7 0 31 -19 53 -41 38 -39 40 -39 49 -19 7 15 6 28 -2 41 -7 10 -12 30 -12 45
0 17 -6 28 -20 31 -11 3 -20 9 -20 14 0 5 -11 9 -25 9 -14 0 -25 5 -25 10 0
21 -19 8 -29 -20 -13 -38 -20 -38 -54 1 -33 38 -29 46 13 29 37 -15 45 -10 36
26 -6 22 -11 25 -29 19 -31 -10 -81 -7 -85 5 -2 5 -10 10 -18 10 -8 0 -11 -6
-7 -17z"/>
<path d="M7382 6698 c-7 -7 -12 -18 -12 -25 0 -24 30 -73 45 -73 19 0 35 -32
30 -58 -4 -24 28 -57 49 -49 20 8 11 35 -20 62 -29 25 -37 71 -11 67 9 -2 17
2 17 7 0 5 -19 9 -42 8 l-43 -2 3 38 c4 40 2 43 -16 25z"/>
<path d="M2875 6680 c-7 -22 -22 -25 -44 -11 -11 7 -18 3 -26 -12 -12 -24 -8
-57 6 -57 5 0 9 -10 9 -22 0 -13 8 -32 16 -43 16 -20 16 -19 9 4 -7 24 12 111
25 111 4 0 15 -9 25 -20 10 -11 24 -20 32 -20 15 0 18 26 2 35 -5 4 -8 12 -6
18 4 11 -20 36 -35 37 -4 0 -10 -9 -13 -20z"/>
<path d="M7634 6677 c3 -10 6 -25 6 -33 0 -8 5 -14 11 -14 12 0 2 40 -14 55
-7 7 -8 4 -3 -8z"/>
<path d="M1837 6660 c6 -22 32 -35 46 -21 6 6 -2 15 -21 25 -28 15 -30 15 -25
-4z"/>
<path d="M2482 6660 c0 -14 2 -19 5 -12 2 6 2 18 0 25 -3 6 -5 1 -5 -13z"/>
<path d="M3405 6673 c-11 -3 -24 -10 -30 -15 -12 -13 35 0 50 13 5 5 7 8 5 8
-3 -1 -14 -3 -25 -6z"/>
<path d="M6440 6665 c0 -8 5 -15 10 -15 6 0 10 7 10 15 0 8 -4 15 -10 15 -5 0
-10 -7 -10 -15z"/>
<path d="M6880 6666 c0 -21 50 -50 63 -37 7 7 3 16 -14 30 -28 24 -49 27 -49
7z"/>
<path d="M7562 6648 c-17 -17 -15 -38 3 -38 11 0 15 -13 15 -54 0 -30 5 -58
10 -61 6 -3 10 -17 10 -31 0 -17 6 -24 18 -24 28 0 32 9 16 45 -8 19 -13 44
-13 57 2 22 -8 50 -35 95 -10 17 -15 20 -24 11z"/>
<path d="M6501 6641 c-15 -10 -9 -14 42 -31 30 -9 41 -9 52 0 25 21 17 33 -17
27 -18 -2 -40 -1 -49 3 -8 5 -21 5 -28 1z"/>
<path d="M2050 6628 c0 -9 -5 -18 -12 -20 -7 -3 -9 -11 -3 -24 4 -10 7 -22 7
-26 -1 -5 2 -8 8 -8 14 0 24 70 11 83 -8 8 -11 7 -11 -5z"/>
<path d="M2546 6603 c9 -50 48 -81 60 -49 7 19 -29 80 -50 84 -15 3 -16 -2
-10 -35z"/>
<path d="M2168 6624 c-15 -15 -8 -46 12 -51 11 -3 20 -11 20 -18 0 -6 11 -17
25 -23 22 -10 25 -9 25 8 0 11 -7 20 -15 20 -19 0 -52 32 -57 55 -1 9 -6 13
-10 9z"/>
<path d="M2733 6614 c-7 -18 11 -39 26 -30 17 11 13 46 -4 46 -9 0 -18 -7 -22
-16z"/>
<path d="M2500 6603 c0 -13 5 -23 10 -23 13 0 13 11 0 30 -8 12 -10 11 -10 -7z"/>
<path d="M7667 6603 c-12 -11 -8 -23 8 -23 8 0 15 7 15 15 0 16 -12 20 -23 8z"/>
<path d="M1640 6587 c0 -18 36 -51 44 -39 3 5 2 18 -1 30 -6 24 -43 31 -43 9z"/>
<path d="M2430 6598 c0 -17 52 -144 63 -156 12 -12 15 -10 19 12 4 18 1 26 -8
26 -8 0 -19 19 -25 44 -6 25 -20 52 -30 62 -10 9 -19 15 -19 12z"/>
<path d="M6620 6591 c0 -19 22 -23 38 -7 15 15 14 16 -11 16 -15 0 -27 -4 -27
-9z"/>
<path d="M6816 6574 c-8 -20 -9 -18 32 -32 30 -10 32 -10 32 14 0 14 -6 24
-14 24 -8 0 -21 3 -29 6 -8 3 -17 -2 -21 -12z"/>
<path d="M3215 6560 c-3 -6 1 -7 9 -4 18 7 21 14 7 14 -6 0 -13 -4 -16 -10z"/>
<path d="M7734 6559 c-3 -6 -2 -15 4 -21 13 -13 32 -2 32 18 0 16 -26 19 -36
3z"/>
<path d="M2920 6540 c0 -13 7 -20 20 -20 13 0 20 7 20 20 0 13 -7 20 -20 20
-13 0 -20 -7 -20 -20z"/>
<path d="M8062 6535 c-6 -14 -15 -25 -20 -25 -4 0 -6 -17 -4 -37 5 -41 35 -72
70 -73 35 0 26 39 -12 53 -12 5 -16 13 -11 25 8 20 8 20 6 55 -1 34 -14 35
-29 2z"/>
<path d="M1800 6521 c0 -24 12 -64 26 -89 0 -1 8 0 17 4 14 5 13 11 -2 57 -20
59 -41 74 -41 28z"/>
<path d="M2361 6539 c0 -9 -9 -19 -19 -22 -11 -2 -21 -14 -25 -26 -4 -17 -1
-21 19 -21 25 0 40 32 31 67 -4 14 -5 15 -6 2z"/>
<path d="M1546 6521 c-14 -16 -17 -28 -11 -58 5 -24 10 -33 14 -23 3 8 15 28
25 43 17 25 17 30 4 43 -13 13 -16 12 -32 -5z"/>
<path d="M2699 6523 c0 -5 -2 -16 -4 -26 -2 -10 6 -22 17 -28 18 -10 20 -9 15
5 -3 8 -2 18 4 21 5 4 3 12 -5 21 -16 15 -26 18 -27 7z"/>
<path d="M1905 6495 c0 -14 3 -25 8 -25 4 0 7 11 7 25 0 14 -3 25 -7 25 -5 0
-8 -11 -8 -25z"/>
<path d="M2540 6501 c0 -24 20 -32 37 -15 20 20 15 34 -12 34 -18 0 -25 -5
-25 -19z"/>
<path d="M3114 6505 c-10 -8 -14 -15 -8 -15 6 0 17 7 24 15 16 19 9 19 -16 0z"/>
<path d="M6883 6513 c-7 -3 -13 -13 -13 -24 0 -10 -6 -19 -12 -19 -9 0 -9 -3
1 -9 29 -18 74 27 48 47 -7 5 -18 7 -24 5z"/>
<path d="M1665 6500 c-9 -14 16 -80 30 -80 6 0 24 -18 41 -40 33 -45 44 -50
44 -17 0 24 -33 67 -50 67 -6 0 -10 7 -10 15 0 19 -29 65 -41 65 -4 0 -11 -5
-14 -10z"/>
<path d="M2166 6494 c-17 -44 22 -82 52 -52 17 17 15 28 -4 28 -9 0 -18 9 -21
20 -6 24 -19 26 -27 4z"/>
<path d="M2790 6461 c0 -17 5 -31 10 -31 6 0 10 11 10 24 0 14 -4 28 -10 31
-6 4 -10 -7 -10 -24z"/>
<path d="M3046 6475 c-7 -19 5 -19 30 0 19 14 19 14 -2 15 -12 0 -24 -7 -28
-15z"/>
<path d="M1957 6460 c-21 -24 -32 -66 -19 -74 10 -6 46 39 56 72 9 28 -13 30
-37 2z"/>
<path d="M2628 6468 c9 -9 15 -9 24 0 9 9 7 12 -12 12 -19 0 -21 -3 -12 -12z"/>
<path d="M1600 6459 c0 -9 -6 -22 -14 -28 -14 -12 -11 -46 6 -67 12 -16 -9
-67 -23 -58 -14 8 -29 -14 -22 -33 4 -11 8 -11 20 -1 21 17 43 -15 43 -64 0
-21 4 -38 9 -38 6 0 13 -20 17 -45 3 -25 10 -45 14 -45 14 0 40 -93 42 -150 1
-30 7 -67 15 -82 20 -42 17 -77 -9 -88 l-23 -9 22 0 c15 -1 29 -13 42 -38 11
-21 20 -33 21 -26 0 7 7 10 15 7 12 -5 13 7 8 78 -7 118 20 76 42 -65 3 -21
10 -35 16 -32 5 4 9 -5 9 -19 0 -20 -4 -24 -17 -19 -10 3 -23 10 -28 14 -16
12 -37 -5 -29 -24 3 -9 10 -17 15 -17 16 0 9 -47 -11 -71 -10 -13 -20 -19 -20
-14 -1 22 -40 -57 -40 -80 0 -18 -5 -25 -19 -25 -21 0 -37 -28 -23 -42 12 -12
41 1 53 23 5 11 16 19 24 19 7 0 16 8 19 18 8 25 56 70 56 52 0 -7 -7 -22 -17
-32 -13 -15 -14 -23 -5 -43 14 -30 28 -32 35 -5 3 13 10 18 21 14 22 -8 20
-31 -4 -44 -15 -8 -18 -17 -14 -38 5 -23 1 -32 -20 -45 -14 -10 -26 -26 -26
-37 0 -11 -4 -20 -10 -20 -5 0 -10 -9 -10 -21 0 -11 -5 -29 -11 -40 -8 -15 -7
-30 4 -57 16 -40 10 -69 -17 -91 -9 -7 -16 -26 -16 -41 0 -24 -3 -27 -25 -22
-21 4 -25 1 -25 -19 0 -16 9 -28 24 -35 29 -14 46 -1 46 33 0 13 4 31 10 41
20 37 92 193 94 205 1 6 21 46 45 87 125 214 123 210 98 210 -15 0 -47 -35
-47 -53 -1 -20 -57 -80 -69 -73 -9 6 -8 28 5 92 3 17 14 23 50 29 l46 7 -6 34
c-9 43 2 104 18 104 7 0 18 -27 24 -60 l13 -60 23 27 c36 44 38 60 9 68 -33 8
-53 28 -53 54 0 27 27 27 54 2 27 -25 76 -32 76 -11 0 5 -7 7 -15 4 -10 -4
-15 0 -15 11 0 11 7 15 23 13 14 -2 22 2 22 12 0 10 -10 15 -32 14 l-32 -2 6
92 c3 50 10 97 16 104 15 19 2 25 -22 10 -11 -7 -23 -25 -26 -40 -13 -59 -45
-17 -45 58 0 19 -5 24 -25 24 -20 0 -25 5 -25 25 0 25 -14 33 -25 15 -9 -15
-25 -12 -25 4 0 7 10 20 22 28 13 9 18 19 14 27 -6 9 -12 8 -27 -5 -16 -14
-19 -31 -19 -106 0 -61 5 -98 16 -119 8 -16 12 -38 9 -48 -4 -13 3 -26 21 -40
24 -19 25 -21 7 -21 -28 0 -46 -24 -38 -50 4 -12 2 -27 -4 -34 -7 -9 -7 -21 1
-43 12 -32 5 -68 -12 -58 -5 3 -10 1 -10 -6 0 -12 -29 -38 -42 -39 -16 0 -7
28 17 54 14 15 22 32 18 39 -10 16 -5 87 9 121 10 25 9 31 -8 45 -16 13 -19
22 -13 44 4 16 13 35 20 43 9 11 8 14 -10 14 -21 0 -29 24 -11 35 18 11 10 44
-15 61 -13 8 -28 13 -33 10 -5 -3 -17 3 -27 14 -24 26 -35 17 -35 -31 0 -26
-4 -39 -14 -39 -16 0 -26 30 -26 82 0 20 -6 41 -12 45 -7 4 -21 32 -31 62 -17
47 -17 55 -4 62 13 8 12 14 -4 46 -10 20 -19 49 -19 63 0 15 -16 71 -35 126
-19 54 -35 92 -35 83z m418 -581 c16 -16 15 -38 -2 -38 -8 0 -16 -6 -18 -12
-3 -9 -10 -8 -22 5 -18 17 -18 19 -1 37 21 23 27 24 43 8z m53 -104 c12 -15 1
-44 -17 -44 -8 0 -14 5 -14 10 0 6 -9 10 -20 10 -13 0 -20 7 -20 20 0 16 6 20
31 18 16 -1 34 -8 40 -14z"/>
<path d="M2282 6448 c6 -18 28 -21 28 -4 0 9 -7 16 -16 16 -9 0 -14 -5 -12
-12z"/>
<path d="M2393 6449 c-29 -11 -29 -15 2 -43 14 -13 28 -34 30 -47 3 -12 9 -27
14 -32 5 -5 8 -15 5 -21 -2 -6 7 -16 21 -23 24 -10 25 -9 25 18 0 19 -12 42
-34 67 -19 20 -36 49 -38 63 -3 23 -6 25 -25 18z"/>
<path d="M2570 6443 c0 -10 -14 -32 -32 -50 -37 -38 -29 -61 12 -38 14 7 44
23 68 35 23 11 42 25 42 31 0 8 -5 7 -15 -1 -18 -15 -45 -6 -45 14 0 7 -7 16
-15 20 -10 3 -15 -1 -15 -11z"/>
<path d="M7485 6430 c-8 -13 4 -32 16 -25 12 8 12 35 0 35 -6 0 -13 -4 -16
-10z"/>
<path d="M7822 6431 c-20 -12 6 -51 35 -51 32 0 38 18 11 40 -26 22 -28 23
-46 11z"/>
<path d="M7210 6410 c-10 -19 -9 -26 9 -43 24 -24 26 -23 34 21 5 23 3 31 -4
26 -6 -4 -15 -1 -19 6 -6 9 -11 7 -20 -10z"/>
<path d="M2140 6408 c0 -7 -3 -23 -6 -34 -4 -15 0 -23 12 -28 28 -11 37 9 20
43 -17 33 -26 39 -26 19z"/>
<path d="M7635 6410 c-8 -13 3 -50 16 -50 12 0 12 47 0 55 -5 3 -12 1 -16 -5z"/>
<path d="M7737 6413 c-12 -12 -7 -22 8 -17 8 4 15 10 15 15 0 11 -14 12 -23 2z"/>
<path d="M7766 6371 c-9 -14 18 -76 33 -76 16 0 23 -12 45 -80 13 -41 14 -57
5 -83 -9 -26 -14 -30 -25 -21 -8 6 -14 20 -14 30 0 11 -6 19 -14 19 -7 0 -19
7 -26 15 -13 16 -40 21 -40 7 0 -4 14 -13 30 -20 23 -11 30 -20 30 -42 0 -37
25 -58 51 -42 22 14 29 15 48 3 10 -6 11 -13 2 -29 -9 -17 -8 -22 9 -27 32
-10 50 -56 46 -117 -1 -30 -6 -60 -10 -66 -10 -17 -26 -15 -33 6 -9 25 -23 31
-54 25 -21 -4 -33 2 -59 28 -21 23 -30 40 -26 53 6 23 -32 86 -50 86 -23 0
-23 -31 1 -82 14 -29 25 -59 25 -65 0 -12 7 -15 26 -12 11 1 24 -25 24 -48 0
-13 8 -24 21 -28 26 -9 42 -50 29 -75 -15 -27 33 -79 58 -63 14 8 21 6 34 -12
15 -20 15 -24 1 -45 -12 -17 -22 -21 -44 -16 -24 4 -29 2 -29 -14 0 -10 13
-28 28 -39 18 -12 38 -43 53 -80 28 -73 52 -81 49 -18 -4 69 -3 73 19 53 11
-10 25 -15 31 -11 6 4 17 -1 25 -11 30 -41 44 13 29 119 -5 39 -3 47 10 47 9
0 16 5 16 10 0 6 11 10 25 10 18 0 25 -5 25 -20 0 -12 -7 -20 -16 -20 -23 0
-12 -23 19 -38 33 -16 34 -36 3 -67 -13 -13 -34 -42 -47 -65 -12 -22 -29 -40
-36 -40 -17 0 -16 -10 3 -31 28 -31 17 -88 -18 -89 -3 0 -10 17 -16 38 l-10
37 -1 -37 c-1 -20 -5 -40 -11 -43 -5 -3 -10 -20 -10 -36 0 -38 39 -131 52
-123 5 3 7 13 3 23 -5 12 -3 13 6 4 6 -6 13 -38 16 -70 3 -32 8 -60 11 -63 12
-9 53 -133 91 -275 36 -137 38 -140 74 -161 21 -11 54 -36 74 -55 l35 -34 -6
45 c-10 77 -36 380 -41 490 -3 58 -10 132 -15 165 -6 33 -12 80 -14 105 -3 56
-24 193 -37 241 -5 20 -16 99 -24 175 -20 185 -42 330 -55 354 -5 10 -10 30
-10 43 0 14 -7 30 -15 37 -13 11 -15 8 -15 -19 0 -26 -4 -31 -24 -31 -13 0
-27 -6 -30 -12 -3 -9 -9 -7 -20 6 -14 17 -16 18 -16 3 0 -9 5 -17 10 -17 11 0
14 -69 4 -94 -3 -9 -12 -16 -20 -16 -22 0 -16 -35 11 -60 14 -13 25 -28 25
-33 0 -5 11 -23 25 -39 20 -24 23 -33 14 -44 -11 -13 -10 -29 5 -65 5 -11 1
-19 -10 -23 -20 -8 -34 9 -34 42 0 12 -4 22 -9 22 -5 0 -14 12 -19 28 -13 36
-39 69 -47 60 -4 -4 5 -40 19 -81 26 -72 26 -76 12 -136 -13 -56 -13 -65 2
-91 17 -30 10 -52 -10 -32 -7 7 -20 12 -29 12 -18 0 -33 39 -23 63 3 8 -2 29
-10 46 -27 51 -21 68 25 75 l40 6 -20 27 c-12 14 -21 34 -21 44 0 11 -4 19 -8
19 -12 0 -32 46 -25 54 4 3 17 6 30 6 24 0 30 17 14 48 -5 9 -17 35 -26 57
-10 22 -29 63 -43 91 -14 29 -23 60 -20 72 4 13 0 23 -8 26 -8 3 -14 12 -14
21 0 8 -4 15 -9 15 -13 0 -34 57 -28 74 4 9 -11 33 -37 60 -42 45 -60 54 -70
37z m391 -343 c-3 -8 -6 -5 -6 6 -1 11 2 17 5 13 3 -3 4 -12 1 -19z m53 -209
c0 -10 -3 -19 -8 -19 -17 0 -72 60 -72 79 0 10 -3 28 -6 38 -3 10 15 -4 40
-30 25 -27 46 -57 46 -68z m-255 -10 c4 -6 -2 -13 -14 -16 -12 -3 -21 -12 -21
-19 0 -19 -19 -18 -26 1 -12 31 44 63 61 34z m25 -53 c0 -3 -4 -8 -10 -11 -5
-3 -10 -1 -10 4 0 6 5 11 10 11 6 0 10 -2 10 -4z m-80 -50 c0 -8 -4 -18 -10
-21 -5 -3 -10 3 -10 14 0 12 5 21 10 21 6 0 10 -6 10 -14z m316 -270 c19 -19
18 -21 -11 -21 -24 0 -33 14 -18 28 9 10 13 9 29 -7z m-74 -173 c-10 -28 -10
-28 -11 12 -1 28 2 36 10 28 8 -8 8 -19 1 -40z"/>
<path d="M2681 6354 c0 -11 3 -14 6 -6 3 7 2 16 -1 19 -3 4 -6 -2 -5 -13z"/>
<path d="M1680 6351 c0 -6 5 -13 10 -16 6 -3 10 1 10 9 0 9 -4 16 -10 16 -5 0
-10 -4 -10 -9z"/>
<path d="M2011 6357 c2 -1 13 -9 24 -17 19 -14 19 -14 6 3 -7 9 -18 17 -24 17
-6 0 -8 -1 -6 -3z"/>
<path d="M2352 6331 c4 -28 2 -31 -23 -31 -15 0 -31 5 -34 10 -3 6 -12 10 -18
10 -7 -1 -3 -9 9 -18 11 -10 27 -31 35 -47 12 -26 20 -30 54 -30 37 0 40 2 47
35 6 29 4 38 -15 53 -12 10 -30 25 -41 34 -18 14 -18 13 -14 -16z"/>
<path d="M7154 6344 c18 -17 19 -24 10 -48 -8 -20 -33 -21 -40 -1 -8 20 -41
38 -48 26 -7 -10 105 -102 116 -95 4 3 2 17 -6 32 -12 23 -12 28 1 38 14 9 13
14 -7 37 -13 15 -28 27 -33 27 -4 0 -1 -7 7 -16z"/>
<path d="M7326 6342 c-7 -12 5 -82 14 -82 14 0 17 70 4 81 -7 6 -15 6 -18 1z"/>
<path d="M7650 6330 c0 -5 5 -10 10 -10 6 0 10 5 10 10 0 6 -4 10 -10 10 -5 0
-10 -4 -10 -10z"/>
<path d="M1950 6314 c0 -9 5 -14 12 -12 18 6 21 28 4 28 -9 0 -16 -7 -16 -16z"/>
<path d="M7522 6319 c2 -7 10 -15 17 -17 8 -3 12 1 9 9 -2 7 -10 15 -17 17 -8
3 -12 -1 -9 -9z"/>
<path d="M7957 6323 c-10 -9 -9 -43 2 -43 13 0 23 32 13 42 -5 5 -11 5 -15 1z"/>
<path d="M1740 6306 c0 -15 18 -31 26 -23 7 7 -7 37 -17 37 -5 0 -9 -6 -9 -14z"/>
<path d="M2061 6299 l-25 -10 23 -15 c17 -12 25 -13 36 -4 18 15 20 40 3 39
-7 0 -24 -5 -37 -10z"/>
<path d="M7392 6275 c1 -37 18 -50 18 -15 0 18 4 20 34 15 42 -8 58 11 21 25
-14 6 -37 10 -50 10 -21 0 -24 -4 -23 -35z"/>
<path d="M7250 6292 c0 -4 7 -17 14 -28 19 -27 10 -64 -16 -64 -14 0 -18 -5
-14 -16 3 -9 6 -18 6 -20 0 -2 8 -4 18 -4 11 0 24 -10 29 -22 10 -22 11 -22
19 -4 5 13 2 23 -11 32 -16 12 -17 17 -6 38 8 14 10 33 6 47 -11 33 -45 65
-45 41z"/>
<path d="M7723 6283 c-15 -5 -18 -53 -4 -53 5 0 16 14 25 30 14 30 9 36 -21
23z"/>
<path d="M2544 6267 c3 -10 6 -34 6 -53 0 -24 5 -34 15 -34 23 0 19 57 -6 83
-18 18 -21 19 -15 4z"/>
<path d="M8120 6273 c1 -5 9 -24 20 -43 19 -34 19 -34 20 -8 0 36 -9 58 -26
58 -8 0 -14 -3 -14 -7z"/>
<path d="M7605 6250 c3 -5 12 -10 20 -10 16 0 25 -11 30 -42 3 -12 17 -33 32
-46 24 -21 28 -22 31 -7 2 9 -6 27 -17 39 -12 12 -21 25 -21 29 0 4 -8 16 -17
27 -17 20 -70 29 -58 10z"/>
<path d="M2630 6220 c0 -5 7 -10 15 -10 8 0 15 5 15 10 0 6 -7 10 -15 10 -8 0
-15 -4 -15 -10z"/>
<path d="M7340 6220 c0 -5 5 -10 10 -10 6 0 10 5 10 10 0 6 -4 10 -10 10 -5 0
-10 -4 -10 -10z"/>
<path d="M1861 6204 c0 -11 3 -14 6 -6 3 7 2 16 -1 19 -3 4 -6 -2 -5 -13z"/>
<path d="M1985 6210 c-3 -5 1 -10 10 -10 9 0 13 5 10 10 -3 6 -8 10 -10 10 -2
0 -7 -4 -10 -10z"/>
<path d="M1907 6203 c-4 -7 -3 -14 3 -18 5 -3 7 -17 4 -30 -6 -24 20 -85 36
-85 14 0 12 17 -6 52 -13 25 -14 36 -5 50 9 14 8 18 -3 18 -8 0 -16 5 -18 12
-3 9 -6 9 -11 1z"/>
<path d="M1997 6191 c-15 -6 -16 -9 -5 -17 30 -24 46 -23 51 2 4 25 -9 30 -46
15z"/>
<path d="M2425 6183 c-11 -2 -36 -28 -55 -58 -19 -30 -40 -54 -46 -55 -23 0
-34 -73 -13 -85 6 -4 19 2 30 14 11 12 24 21 28 21 11 0 2 -38 -10 -46 -12 -7
-11 -54 1 -54 6 0 10 4 10 8 0 5 14 23 31 40 17 18 26 32 20 32 -7 0 -9 5 -6
10 3 6 1 25 -6 44 -11 31 -10 35 21 64 18 17 41 34 51 37 11 4 16 12 12 21 -5
13 -26 16 -68 7z"/>
<path d="M2595 6179 c-11 -17 1 -21 15 -4 8 9 8 15 2 15 -6 0 -14 -5 -17 -11z"/>
<path d="M2276 6164 c-3 -8 -16 -18 -28 -23 -13 -5 -31 -23 -41 -40 -18 -30
-18 -31 0 -31 17 0 57 36 91 81 10 13 10 18 -2 22 -8 3 -17 -1 -20 -9z"/>
<path d="M7374 6166 c-3 -8 -1 -24 5 -35 7 -11 9 -31 6 -43 -4 -17 2 -32 23
-56 16 -17 33 -32 38 -32 13 0 90 -75 104 -100 14 -26 40 -26 40 0 0 11 -4 20
-8 20 -5 0 -14 12 -21 26 -6 14 -17 24 -24 21 -24 -9 -49 13 -43 38 4 17 1 24
-14 28 -11 3 -25 18 -31 34 -6 15 -16 35 -23 43 -7 8 -16 27 -20 43 -7 29 -23
36 -32 13z"/>
<path d="M7456 6164 c-12 -30 -6 -49 19 -60 22 -11 24 -10 15 6 -6 10 -10 28
-10 39 0 25 -16 36 -24 15z"/>
<path d="M2145 6145 c-5 -11 -13 -23 -19 -27 -6 -4 -8 -9 -5 -12 11 -12 41 21
37 40 -5 19 -5 19 -13 -1z"/>
<path d="M2513 6152 c-16 -10 -29 -92 -15 -92 17 0 27 22 27 62 0 21 0 38 0
38 0 0 -5 -4 -12 -8z"/>
<path d="M7555 6150 c3 -5 10 -10 16 -10 5 0 9 5 9 10 0 6 -7 10 -16 10 -8 0
-12 -4 -9 -10z"/>
<path d="M8041 6148 c-1 -20 -41 -25 -41 -5 -1 7 -7 4 -15 -7 -8 -10 -12 -24
-8 -29 3 -6 10 -24 14 -41 5 -21 7 -24 8 -10 1 12 13 33 27 47 15 15 24 33 21
44 -4 17 -5 17 -6 1z"/>
<path d="M1777 6113 c-2 -10 -8 -26 -12 -35 -6 -14 -2 -18 18 -18 31 0 41 13
33 46 -7 28 -31 32 -39 7z"/>
<path d="M7550 6070 c6 -48 34 -95 51 -84 4 2 20 -20 34 -50 15 -31 30 -58 36
-61 16 -11 9 -54 -12 -68 -20 -15 -20 -15 7 -36 15 -12 36 -35 46 -51 10 -17
22 -30 28 -30 17 0 11 29 -10 50 -35 35 -20 107 19 92 14 -5 14 -4 1 9 -8 8
-23 18 -33 22 -9 3 -22 18 -27 32 -5 14 -17 25 -26 25 -13 0 -16 7 -11 36 5
30 3 37 -12 41 -17 4 -41 41 -41 63 0 9 -44 60 -52 60 -2 0 -2 -22 2 -50z"/>
<path d="M2040 6090 c-8 -5 -11 -12 -7 -16 4 -4 15 0 24 9 18 18 8 23 -17 7z"/>
<path d="M2200 6031 c-42 -6 -45 -8 -48 -38 -2 -18 1 -33 7 -33 5 0 16 -3 25
-6 10 -4 16 -1 16 9 0 8 7 20 16 27 13 11 41 53 32 48 -2 0 -23 -4 -48 -7z"/>
<path d="M2053 6005 c-3 -9 3 -25 13 -36 18 -20 18 -20 37 0 11 11 17 26 14
35 -8 20 -56 21 -64 1z"/>
<path d="M4775 6008 c-27 -4 -72 -12 -100 -16 -27 -4 -57 -12 -65 -17 -8 -5
-23 -8 -33 -7 -9 2 -29 -5 -45 -16 -15 -11 -38 -23 -52 -27 -59 -18 -142 -80
-176 -131 -48 -72 -57 -111 -44 -182 15 -85 57 -158 133 -236 37 -38 67 -72
67 -76 0 -12 36 -40 52 -40 9 0 18 6 20 12 4 10 10 10 32 0 15 -6 24 -17 21
-22 -9 -15 20 -40 48 -40 13 0 41 -11 61 -25 58 -39 86 -43 216 -26 70 9 108
19 254 70 77 27 203 95 240 129 28 27 96 158 96 186 0 8 5 18 10 21 6 3 10 34
10 69 0 39 5 69 15 82 8 10 15 28 15 40 0 43 -102 110 -255 165 -44 16 -84 34
-89 39 -6 6 -21 10 -36 10 -14 0 -57 7 -95 16 -145 33 -212 38 -300 22z m247
-93 c108 -34 187 -74 203 -105 7 -14 25 -36 39 -49 23 -22 54 -76 69 -122 8
-25 -9 -42 -42 -41 -20 0 -31 -4 -31 -13 0 -8 -17 -23 -38 -34 -21 -11 -44
-27 -51 -35 -8 -9 -19 -16 -25 -16 -6 0 -36 -19 -65 -41 -91 -69 -157 -87
-183 -51 -7 11 -30 22 -51 26 -22 4 -54 22 -76 42 -21 19 -44 34 -51 34 -15 0
-98 80 -179 172 -18 21 -37 38 -41 38 -18 0 -17 -40 1 -56 10 -9 19 -30 19
-46 0 -41 48 -105 88 -119 22 -7 39 -23 52 -50 15 -29 27 -39 45 -39 36 0 74
-17 112 -50 30 -27 41 -30 98 -30 35 0 67 5 70 10 3 6 19 10 34 10 16 0 45 11
65 25 20 14 47 25 60 25 14 0 28 9 36 24 7 14 22 26 34 28 11 2 33 22 49 46
16 23 35 42 43 42 8 0 19 12 24 26 13 32 31 27 42 -11 5 -20 3 -36 -7 -52 -8
-12 -15 -31 -15 -41 0 -13 -12 -24 -32 -33 -18 -7 -44 -26 -56 -41 -13 -16
-29 -28 -36 -28 -7 0 -23 -11 -36 -25 -16 -17 -34 -25 -57 -25 -19 0 -53 -10
-76 -22 -58 -30 -253 -39 -291 -14 -14 9 -35 16 -46 16 -31 0 -80 28 -122 69
-20 20 -44 43 -53 51 -72 67 -134 159 -135 200 0 8 7 28 15 44 8 15 15 37 15
48 0 29 75 125 104 132 14 3 30 15 36 26 6 11 17 20 26 20 8 0 40 9 72 21 119
43 232 48 344 14z"/>
<path d="M4755 5841 c-21 -12 -45 -21 -51 -21 -7 0 -37 -22 -66 -49 -45 -42
-51 -52 -42 -68 15 -24 50 -28 70 -9 8 9 21 16 27 16 19 0 57 -29 57 -43 0
-28 38 -80 75 -102 88 -53 136 -75 148 -69 36 21 130 111 138 132 8 20 14 23
37 17 46 -11 92 -17 92 -12 0 22 -51 90 -96 127 -76 62 -99 73 -174 81 -36 4
-90 11 -120 14 -45 5 -62 3 -95 -14z m198 -27 c4 -4 -7 -22 -23 -41 -17 -18
-30 -40 -30 -47 0 -17 -71 -49 -101 -44 -31 4 -64 65 -47 86 27 33 180 67 201
46z m148 -80 c29 -26 23 -50 -18 -75 -21 -13 -44 -31 -51 -41 -23 -31 -63 -46
-99 -36 -30 8 -73 53 -73 77 0 16 48 33 95 35 27 1 39 6 37 15 -1 7 0 22 4 33
5 17 12 20 46 15 22 -3 48 -13 59 -23z"/>
<path d="M7841 5978 c-11 -28 -6 -38 19 -38 24 0 31 11 23 38 -7 29 -31 28
-42 0z"/>
<path d="M2261 5953 c-10 -19 -8 -25 9 -40 34 -30 20 -73 -25 -73 -28 0 -37
-10 -25 -25 7 -9 7 -21 0 -39 -13 -36 5 -33 27 4 9 17 20 30 23 30 8 0 70 85
70 95 0 4 -6 2 -14 -4 -16 -14 -28 -1 -43 44 -10 30 -10 30 -22 8z"/>
<path d="M1545 5951 c-11 -19 -19 -711 -7 -711 6 0 8 -9 5 -20 -3 -11 -9 -20
-14 -20 -12 0 -11 -51 2 -88 7 -20 7 -37 1 -49 -6 -10 -13 -80 -17 -155 l-8
-137 28 -11 c22 -8 26 -15 21 -33 -13 -44 -25 -129 -32 -221 -5 -75 -3 -100
10 -127 21 -45 16 -304 -7 -341 -12 -19 -13 -37 -4 -101 8 -63 8 -80 -3 -87
-9 -5 -10 -18 -6 -41 13 -63 17 -207 6 -214 -5 -3 -10 -37 -10 -76 0 -55 -3
-69 -15 -69 -8 0 -15 8 -16 18 0 14 -1 14 -8 -3 -9 -22 -24 -171 -23 -225 2
-107 4 -131 12 -200 5 -41 12 -97 16 -125 3 -27 9 -84 14 -125 17 -139 36
-236 55 -267 16 -27 17 -36 7 -58 -8 -18 -9 -32 -2 -45 5 -10 10 -29 10 -42 0
-17 3 -19 9 -9 5 8 7 -4 4 -33 -4 -31 -1 -51 8 -62 17 -21 38 -171 38 -281 1
-58 5 -84 15 -90 9 -5 15 -36 18 -93 5 -85 40 -212 65 -238 7 -7 13 -22 13
-33 0 -10 5 -19 10 -19 6 0 10 -15 10 -34 0 -43 9 -66 24 -66 14 0 36 -41 36
-65 0 -8 4 -15 9 -15 5 0 14 -13 21 -30 7 -16 16 -30 21 -30 4 0 11 -9 14 -20
4 -11 17 -31 29 -43 20 -20 25 -42 37 -143 10 -92 15 -111 20 -84 5 29 7 31 9
10 2 -14 3 -33 2 -43 -1 -9 2 -17 7 -17 5 0 11 -22 15 -50 4 -27 10 -50 14
-50 19 0 50 -131 61 -262 4 -48 10 -90 14 -94 4 -4 7 2 7 14 0 13 6 22 15 22
11 0 15 -11 15 -40 0 -29 -4 -40 -15 -40 -8 0 -15 -9 -15 -20 0 -11 7 -20 15
-20 8 0 15 -9 15 -20 0 -11 7 -20 15 -20 8 0 15 -9 15 -20 0 -16 -7 -20 -30
-20 -28 0 -30 -2 -30 -40 0 -39 1 -40 34 -40 l33 0 7 -61 c3 -34 6 -88 6 -120
l0 -59 2724 0 2723 0 6 107 c4 77 9 108 19 114 11 6 14 23 12 59 -2 28 1 57 6
63 40 47 50 61 50 69 0 4 6 8 14 8 9 0 17 15 21 40 4 22 11 40 16 40 5 0 9 9
9 19 0 11 4 23 10 26 6 3 10 19 10 34 0 19 8 34 23 43 22 15 47 85 47 133 0
18 5 25 19 25 19 0 31 34 31 87 0 13 9 41 19 61 11 21 22 55 26 75 4 20 11 37
16 37 5 0 9 14 9 30 0 17 3 30 8 30 10 0 32 73 32 107 0 16 5 35 10 43 8 12
10 12 10 1 0 -31 13 1 16 41 2 23 8 46 13 51 5 5 7 15 5 22 -3 7 2 40 10 73 9
33 16 73 16 89 0 24 6 30 33 38 22 7 32 16 33 30 1 41 27 170 31 158 8 -24 23
-13 23 15 0 16 9 39 20 52 14 16 20 37 20 72 0 26 5 48 10 48 6 0 10 -5 10
-11 0 -6 7 -3 17 6 14 14 14 18 2 26 -11 7 -12 11 -1 17 7 5 12 13 11 18 -1 5
-1 16 0 24 1 13 2 13 11 0 6 -10 10 -11 10 -2 0 6 6 12 14 12 10 0 13 14 11
57 -2 32 -1 52 2 46 4 -10 8 -9 19 1 10 11 14 47 15 143 1 70 4 118 6 105 5
-27 23 -29 23 -2 0 11 5 20 10 20 6 0 10 46 10 119 0 87 3 120 12 123 10 4 13
77 12 324 -1 386 0 374 -18 374 -18 0 -36 99 -36 194 0 40 -5 73 -12 81 -7 8
-19 21 -25 29 -7 8 -17 56 -23 107 -14 125 -20 130 -45 35 -8 -31 -15 -65 -15
-75 0 -10 -9 -40 -19 -67 -11 -27 -30 -83 -42 -124 -12 -41 -41 -129 -65 -195
-24 -67 -44 -125 -44 -130 0 -8 -43 -116 -104 -260 -7 -16 -19 -45 -26 -62 -7
-18 -16 -33 -20 -33 -4 0 -15 -16 -26 -35 -10 -19 -21 -35 -24 -35 -3 0 -14
-23 -25 -51 -11 -29 -28 -57 -37 -63 -10 -6 -18 -15 -18 -20 0 -11 -79 -122
-106 -150 -12 -11 -37 -42 -57 -67 -111 -147 -415 -451 -606 -609 -72 -59
-144 -120 -185 -157 -22 -20 -53 -41 -70 -49 -17 -7 -47 -27 -66 -45 -35 -31
-165 -119 -177 -119 -3 0 -33 -19 -67 -43 -33 -24 -90 -56 -126 -71 -36 -16
-76 -36 -90 -46 -14 -9 -69 -34 -124 -55 -54 -21 -103 -47 -109 -57 -7 -10
-22 -18 -34 -18 -13 0 -49 -9 -80 -19 -32 -11 -76 -22 -97 -26 -21 -3 -45 -13
-53 -20 -7 -8 -66 -31 -130 -51 -64 -20 -131 -45 -147 -55 -17 -10 -55 -24
-86 -30 -30 -6 -82 -17 -115 -25 -87 -20 -323 -44 -423 -44 -96 1 -336 24
-422 40 -30 6 -86 15 -125 20 -131 16 -382 92 -530 160 -22 10 -54 21 -71 25
-18 3 -40 15 -50 26 -9 10 -24 19 -33 19 -21 0 -163 59 -218 90 -10 5 -44 19
-76 31 -33 12 -71 33 -85 48 -26 26 -98 71 -227 141 -33 18 -63 38 -68 46 -4
7 -33 27 -65 45 -31 18 -86 59 -122 92 -36 33 -82 70 -102 83 -20 13 -39 32
-42 42 -4 11 -25 28 -48 38 -24 10 -57 36 -76 56 -18 20 -59 50 -90 66 -44 22
-62 39 -79 71 -11 23 -37 59 -57 81 -20 22 -36 46 -36 53 0 7 -13 26 -30 42
-16 15 -32 40 -35 56 -8 38 -33 58 -47 38 -7 -11 -8 -9 -3 6 20 55 18 64 -29
107 -32 31 -46 51 -46 70 0 15 -14 43 -35 68 -19 23 -42 66 -50 95 -9 29 -25
61 -35 70 -11 10 -20 26 -20 35 0 10 -7 23 -14 30 -8 6 -20 28 -27 48 -11 34
-12 35 -20 14 -10 -25 7 -77 33 -103 8 -8 23 -39 32 -69 19 -61 64 -158 77
-166 4 -2 6 -11 3 -18 -3 -8 2 -30 10 -51 9 -21 16 -51 16 -68 0 -20 11 -42
34 -67 19 -21 37 -36 40 -32 3 3 6 0 6 -6 0 -22 -40 -13 -49 11 -5 12 -28 39
-50 60 -23 20 -41 43 -41 51 0 17 -34 96 -105 241 -29 61 -58 130 -65 154 -6
24 -15 51 -20 60 -19 34 -48 110 -55 142 -4 19 -11 39 -15 44 -7 9 -59 213
-109 425 -41 176 -50 527 -22 850 9 103 9 105 -14 125 -48 41 -61 108 -24 118
15 4 20 11 17 25 -7 25 11 144 24 159 7 8 6 24 -2 49 -7 20 -10 54 -7 75 4 34
3 39 -15 39 -33 0 -14 24 27 36 40 11 60 40 42 62 -5 7 -7 32 -3 58 3 29 2 43
-4 39 -6 -4 -10 10 -10 32 0 22 -4 43 -9 49 -5 5 -15 36 -21 69 -24 120 -24
115 -2 115 12 0 24 -4 27 -10 10 -16 55 -12 55 4 0 33 -13 46 -46 46 -19 0
-34 4 -34 9 0 4 14 25 30 46 29 37 40 85 19 85 -5 0 -9 10 -7 21 2 18 -3 22
-29 24 -20 2 -34 -3 -37 -11 -10 -25 -26 -15 -26 15 0 35 19 51 32 27 14 -24
38 -2 38 34 0 30 13 45 45 53 18 4 18 5 -2 6 -12 0 -27 9 -33 19 -8 12 -13 13
-16 4 -3 -6 -10 -10 -15 -6 -5 3 -9 0 -9 -5 0 -6 -4 -11 -9 -11 -11 0 4 79 18
93 15 15 14 47 -1 42 -7 -2 -21 6 -30 19 -14 19 -15 31 -8 56 10 35 -1 73 -15
51z m65 -461 c0 -5 -7 -10 -16 -10 -8 0 -12 5 -9 10 3 6 10 10 16 10 5 0 9 -4
9 -10z m0 -414 c0 -21 -21 -31 -31 -15 -14 22 -11 29 11 29 11 0 20 -6 20 -14z
m-12 -118 c-2 -13 -10 -23 -18 -23 -8 0 -16 10 -18 23 -3 17 2 22 18 22 16 0
21 -5 18 -22z m5579 -3164 c-3 -3 -12 -4 -19 -1 -8 3 -5 6 6 6 11 1 17 -2 13
-5z m-5387 -344 c0 -5 -4 -10 -9 -10 -6 0 -13 5 -16 10 -3 6 1 10 9 10 9 0 16
-4 16 -10z m4944 -34 c-3 -9 -10 -16 -14 -16 -5 0 -15 -3 -23 -6 -12 -4 -14 0
-9 18 9 35 24 47 39 32 7 -7 10 -20 7 -28z"/>
<path d="M2140 5800 c0 -47 19 -53 43 -16 15 23 15 25 -8 40 -34 22 -35 21
-35 -24z"/>
<path d="M7760 5691 c0 -5 -3 -16 -6 -24 -6 -17 51 -87 72 -87 16 0 19 36 4
45 -6 4 -8 10 -5 14 2 5 -9 20 -25 35 -32 28 -40 31 -40 17z"/>
<path d="M1673 5643 c-15 -6 -17 -39 -3 -48 6 -3 10 -1 10 4 0 6 9 11 20 11
13 0 20 7 20 20 0 20 -19 25 -47 13z"/>
<path d="M1711 5587 c0 -10 -8 -29 -17 -42 -10 -16 -12 -25 -5 -25 14 0 33 48
28 69 -4 13 -5 13 -6 -2z"/>
<path d="M1770 5371 c-5 -11 -10 -27 -10 -36 0 -13 4 -14 20 -5 12 6 20 21 20
35 0 30 -15 33 -30 6z"/>
<path d="M1669 5278 c0 -2 -3 -24 -6 -50 -6 -54 7 -63 32 -24 13 19 14 28 4
50 -10 21 -27 35 -30 24z"/>
<path d="M1730 5103 c0 -22 2 -25 10 -13 13 20 13 40 0 40 -5 0 -10 -12 -10
-27z"/>
<path d="M2916 5021 c-4 -6 -4 -12 1 -12 4 -1 -10 -5 -32 -8 -25 -4 -40 -11
-41 -21 -3 -44 -5 -50 -19 -50 -8 0 -15 -4 -15 -9 0 -5 -13 -23 -30 -41 -16
-18 -28 -35 -25 -40 2 -4 -7 -5 -20 -2 -14 2 -28 8 -31 13 -10 16 -24 9 -24
-12 0 -15 -4 -19 -16 -15 -18 7 -38 -10 -48 -40 -8 -26 -42 -28 -59 -4 -13 18
-13 18 -25 0 -6 -10 -22 -20 -34 -22 -20 -3 -23 -8 -20 -37 2 -34 2 -34 -17
-17 -13 12 -21 14 -26 6 -4 -7 -16 -10 -26 -7 -14 4 -19 0 -19 -14 0 -13 7
-19 24 -19 29 0 39 -20 17 -37 -20 -15 -45 -17 -36 -2 9 13 -23 49 -43 49 -11
0 -13 -9 -9 -41 6 -45 -11 -99 -24 -77 -4 6 -3 20 3 31 5 10 7 21 4 25 -8 7
-35 -28 -36 -45 0 -7 -4 -13 -9 -13 -5 0 -13 -9 -16 -20 -3 -11 -13 -20 -21
-20 -8 0 -14 -10 -14 -24 0 -16 -7 -27 -20 -31 -22 -7 -27 -34 -9 -52 8 -8 8
-21 -1 -47 -13 -40 -29 -47 -37 -16 -3 11 -10 20 -15 20 -5 0 -7 -4 -3 -9 3
-6 -3 -15 -14 -20 -11 -6 -27 -18 -35 -27 -14 -14 -14 -18 -1 -37 19 -27 19
-37 1 -37 -7 0 -16 -9 -19 -20 -5 -21 17 -40 47 -40 9 0 16 -6 16 -14 0 -9 -7
-12 -20 -9 -25 7 -70 -4 -70 -17 0 -5 9 -12 20 -15 26 -8 19 -40 -16 -72 -23
-21 -35 -61 -15 -48 5 3 12 1 15 -4 4 -5 2 -12 -4 -16 -5 -3 -10 -11 -10 -16
0 -13 52 -3 61 12 13 22 39 1 39 -31 0 -17 -4 -29 -9 -25 -11 6 -73 -26 -78
-40 -1 -6 6 -21 16 -34 21 -28 52 -23 69 12 9 20 11 17 11 -20 1 -25 8 -48 18
-58 14 -14 14 -18 2 -26 -17 -11 -59 -12 -58 -1 1 4 1 15 0 25 -1 20 -31 23
-31 3 0 -15 76 -167 88 -176 4 -3 20 -25 36 -50 29 -45 74 -90 89 -90 4 0 44
-35 88 -77 166 -160 312 -232 518 -254 251 -27 465 23 656 153 89 61 90 61
155 138 79 93 92 115 92 168 0 27 3 40 8 32 6 -9 10 -7 15 9 3 11 4 24 2 28
-5 9 11 96 37 205 17 69 27 288 13 288 -4 0 -5 11 -1 25 4 15 1 32 -6 40 -7 9
-10 27 -7 44 8 37 -2 71 -20 71 -11 0 -13 7 -8 28 8 41 -52 182 -85 199 -14 7
-25 18 -25 26 0 20 -98 129 -161 179 -30 23 -57 51 -60 61 -7 21 -61 51 -66
36 -2 -5 -20 6 -41 25 -48 44 -154 96 -195 96 -17 0 -42 5 -56 11 -13 6 -40 9
-59 5 -33 -6 -34 -8 -28 -43 7 -44 20 -50 48 -24 17 16 22 17 27 6 11 -29 -20
-38 -86 -26 -39 8 -63 9 -67 3 -3 -6 -22 -12 -41 -14 -34 -3 -35 -2 -38 35 -3
32 0 37 17 37 12 0 21 -5 21 -11 0 -10 73 -4 94 9 13 7 -35 31 -64 32 -15 0
-31 5 -37 11 -8 8 -13 8 -17 0z m-36 -96 c0 -8 -4 -15 -10 -15 -5 0 -10 7 -10
15 0 8 5 15 10 15 6 0 10 -7 10 -15z m351 -40 c-1 -15 -38 -14 -61 2 -33 23
-23 33 21 20 22 -7 40 -16 40 -22z m-381 10 c0 -11 -34 -44 -42 -39 -13 9 -9
24 7 24 8 0 15 5 15 10 0 6 5 10 10 10 6 0 10 -2 10 -5z m507 -47 c-3 -7 -5
-2 -5 12 0 14 2 19 5 13 2 -7 2 -19 0 -25z m93 -47 c0 -6 -4 -13 -10 -16 -5
-3 -10 1 -10 9 0 9 5 16 10 16 6 0 10 -4 10 -9z m-913 -73 c-3 -7 -5 -2 -5 12
0 14 2 19 5 13 2 -7 2 -19 0 -25z m480 -4 c2 -7 -3 -19 -12 -28 -20 -20 -109
-23 -103 -3 3 6 15 13 27 15 12 2 25 10 28 18 6 17 54 15 60 -2z m-127 -34 c0
-5 -9 -10 -20 -10 -21 0 -72 -20 -80 -32 -7 -10 -38 -4 -51 9 -9 9 -2 13 25
18 20 4 39 11 42 16 7 12 84 11 84 -1z m740 -25 c0 -23 -16 -26 -35 -5 -22 24
-12 44 16 30 10 -6 19 -17 19 -25z m-935 -45 c-19 -21 -45 -27 -45 -10 0 11
30 29 49 30 11 0 10 -5 -4 -20z m965 -20 c0 -5 -4 -10 -10 -10 -5 0 -10 5 -10
10 0 6 5 10 10 10 6 0 10 -4 10 -10z m50 -52 c0 -13 -23 -5 -28 10 -2 7 2 10
12 6 9 -3 16 -11 16 -16z m-1100 7 c0 -2 -9 -9 -20 -15 -16 -9 -18 -8 -14 5 5
13 34 22 34 10z m-50 -770 c0 -8 -4 -15 -9 -15 -5 0 -11 7 -15 15 -3 9 0 15 9
15 8 0 15 -7 15 -15z m27 -51 c-9 -9 -28 6 -21 18 4 6 10 6 17 -1 6 -6 8 -13
4 -17z m58 -82 c-3 -3 -11 0 -18 7 -9 10 -8 11 6 5 10 -3 15 -9 12 -12z m110
-122 c3 -5 1 -10 -4 -10 -6 0 -11 5 -11 10 0 6 2 10 4 10 3 0 8 -4 11 -10z
m178 -77 c-7 -2 -19 -2 -25 0 -7 3 -2 5 12 5 14 0 19 -2 13 -5z"/>
<path d="M2785 4950 c3 -5 8 -10 11 -10 2 0 4 5 4 10 0 6 -5 10 -11 10 -5 0
-7 -4 -4 -10z"/>
<path d="M6620 4940 c-9 -16 -8 -20 5 -20 8 0 15 2 15 4 0 2 3 11 6 20 9 23
-13 20 -26 -4z"/>
<path d="M2673 4923 c-16 -33 -16 -43 -3 -43 6 0 10 9 10 20 0 11 7 23 15 26
18 7 20 24 3 24 -7 0 -19 -12 -25 -27z"/>
<path d="M6690 4920 c-12 -8 -11 -10 6 -10 25 0 50 -25 35 -34 -5 -3 -21 -7
-36 -8 -15 -2 -30 -8 -32 -15 -8 -20 -23 -15 -23 7 0 11 -6 20 -13 20 -7 0
-20 9 -30 20 -18 21 -43 25 -67 10 -22 -14 -6 -22 22 -11 24 9 26 8 32 -31 8
-48 2 -57 -26 -39 -17 11 -22 11 -29 -1 -5 -7 -9 -17 -9 -22 0 -4 -9 -6 -20
-3 -27 7 -94 -18 -98 -37 -2 -9 -13 -16 -27 -16 -12 0 -28 -7 -35 -15 -9 -11
-16 -12 -26 -4 -10 8 -19 7 -36 -5 -12 -9 -30 -16 -40 -16 -9 0 -28 -12 -40
-26 -13 -14 -38 -41 -55 -59 -18 -19 -33 -38 -33 -44 0 -6 -4 -11 -10 -11 -5
0 -10 -8 -10 -17 0 -10 -7 -27 -15 -37 -8 -11 -15 -32 -15 -47 0 -16 -7 -32
-17 -38 -17 -9 -16 -12 8 -37 22 -21 25 -31 18 -53 -5 -14 -11 -43 -14 -63 -4
-23 -11 -38 -20 -38 -11 0 -13 -14 -8 -69 4 -46 2 -70 -6 -75 -6 -4 -11 -18
-11 -32 0 -13 -4 -24 -9 -24 -9 0 -7 -65 5 -170 7 -63 40 -153 95 -258 45 -86
193 -250 245 -271 21 -8 36 -22 40 -37 3 -13 9 -24 13 -24 3 0 20 -12 36 -26
38 -33 76 -48 85 -34 4 6 15 8 25 4 14 -6 16 -4 10 7 -8 12 -6 12 8 0 9 -7 17
-10 17 -7 0 4 7 0 16 -8 17 -17 34 -21 34 -8 0 5 -15 16 -32 25 l-33 16 27 0
c15 1 29 -3 32 -8 15 -23 392 -32 506 -11 70 12 111 27 207 76 48 25 63 29 67
18 3 -8 19 -14 38 -14 26 1 45 12 94 59 34 32 76 84 95 115 18 31 36 56 40 56
6 0 14 18 58 126 52 131 89 451 63 556 -6 24 -16 70 -23 103 -7 33 -27 87 -45
120 -17 33 -35 71 -39 85 -4 14 -28 48 -54 75 -25 28 -52 60 -59 70 -11 18
-11 17 -1 -4 9 -18 8 -25 -2 -32 -10 -6 -17 -2 -23 11 -14 30 -36 33 -46 4 -6
-14 -14 -23 -19 -20 -5 4 -11 0 -14 -6 -2 -7 -4 11 -3 41 1 54 -3 62 -46 75
-11 3 -18 15 -18 31 0 21 -5 25 -30 25 -22 0 -30 5 -30 18 0 28 -40 41 -104
35 -38 -4 -61 -1 -71 7 -19 16 -261 25 -270 10 -4 -6 -13 -5 -25 2 -14 9 -22
9 -34 -1 -13 -11 -20 -9 -42 8 -15 12 -32 21 -39 21 -7 0 -18 7 -25 15 -15 17
-20 18 -40 5z m560 -110 c0 -5 -9 -10 -21 -10 -11 0 -17 5 -14 10 3 6 13 10
21 10 8 0 14 -4 14 -10z m135 -61 c4 -6 5 -12 3 -14 -7 -8 -78 7 -78 16 0 13
68 11 75 -2z m-431 -34 c-4 -8 -15 -15 -25 -15 -10 0 -19 7 -19 15 0 9 9 15
25 15 18 0 23 -4 19 -15z m443 -1 c-3 -3 -12 -4 -19 -1 -8 3 -5 6 6 6 11 1 17
-2 13 -5z m-1142 -44 c-3 -5 -13 -10 -21 -10 -8 0 -14 5 -14 10 0 6 9 10 21
10 11 0 17 -4 14 -10z m1319 -91 c14 -11 26 -27 26 -35 0 -11 -9 -8 -35 12
-34 25 -45 44 -26 44 4 0 20 -9 35 -21z m-240 -714 c-9 -14 -19 -24 -21 -21
-6 6 20 46 30 46 4 0 0 -11 -9 -25z"/>
<path d="M1688 4808 c-3 -39 -6 -43 -30 -46 -33 -4 -37 -18 -8 -27 12 -4 27 1
39 12 20 19 24 32 22 76 -2 43 -20 31 -23 -15z"/>
<path d="M2480 4800 c0 -19 3 -21 12 -12 9 9 9 15 0 24 -9 9 -12 7 -12 -12z"/>
<path d="M2335 4720 c-10 -11 -15 -23 -12 -27 8 -7 47 25 47 39 0 14 -16 9
-35 -12z"/>
<path d="M1651 4588 c0 -9 -4 -25 -7 -35 -5 -17 -5 -17 6 0 6 10 9 25 7 35 -4
15 -5 15 -6 0z"/>
<path d="M1606 4498 c-10 -37 -7 -58 8 -58 16 0 26 21 26 56 0 31 -26 32 -34
2z"/>
<path d="M6005 4321 c-3 -5 -1 -12 5 -16 5 -3 10 1 10 9 0 18 -6 21 -15 7z"/>
<path d="M1460 3540 c0 -11 5 -20 10 -20 6 0 10 9 10 20 0 11 -4 20 -10 20 -5
0 -10 -9 -10 -20z"/>
<path d="M6649 3193 c-7 -7 -9 -16 -5 -20 3 -3 6 -1 6 6 0 7 9 5 27 -6 23 -15
51 -18 198 -18 113 0 177 4 190 12 19 11 19 12 -5 21 -15 6 -32 6 -43 0 -20
-10 -252 -3 -314 10 -33 7 -45 6 -54 -5z"/>
<path d="M1815 2984 c4 -10 12 -32 18 -49 5 -16 15 -43 23 -60 12 -30 12 -30
7 10 -8 48 -28 101 -45 111 -8 5 -9 2 -3 -12z"/>
<path d="M2758 2680 c-57 -21 -160 -110 -192 -165 -33 -55 -56 -139 -56 -199
0 -97 65 -189 185 -264 64 -39 139 -56 230 -50 89 6 150 34 214 98 53 53 91
146 91 223 0 103 -62 252 -130 310 -75 64 -239 87 -342 47z"/>
<path d="M5030 2319 c-228 -4 -532 -12 -675 -18 -143 -6 -337 -12 -431 -13
-95 -2 -170 -6 -167 -10 2 -5 13 -8 23 -8 13 0 24 -15 39 -55 12 -31 21 -60
21 -66 0 -26 99 -258 162 -379 164 -317 345 -523 553 -629 130 -66 187 -82
315 -88 237 -12 437 38 615 152 138 88 329 271 428 410 46 65 155 277 172 335
4 14 22 57 40 95 31 68 58 170 59 230 1 28 -1 30 -29 26 -62 -8 -215 -6 -355
6 -212 18 -310 20 -770 12z m346 -496 c-12 -12 -41 14 -38 33 7 34 26 36 36 4
5 -17 6 -33 2 -37z m-81 47 c-3 -5 -13 -10 -21 -10 -8 0 -14 5 -14 10 0 6 9
10 21 10 11 0 17 -4 14 -10z"/>
</g>
</svg>
